<svg style="enable-background:new 0 0 55.343 55.343" xmlns="http://www.w3.org/2000/svg" viewBox="0 0 55.343 55.343" version="1.1" y="0px" x="0px"><path d="m10.5 7.09h3.59c1.66 0 3-1.34 3-3s-1.34-3-3-3h-10.9c-0.009 0-0.018 0.002-0.027 0.003-0.188 0.001-0.375 0.02-0.56 0.056-0.09 0.018-0.174 0.052-0.262 0.078-0.1 0.029-0.202 0.053-0.299 0.093-0.1 0.042-0.191 0.098-0.285 0.15-0.03 0.05-0.11 0.08-0.18 0.13-0.16 0.11-0.31 0.23-0.45 0.37h-0.01c0 0.01-0.01 0.02-0.01 0.02-0.04 0.04-0.07 0.08-0.1 0.12-0.616 0.55-1.01 1.34-1.01 2.23v10.8c0 1.66 1.34 3 3 3s3-1.34 3-3v-4.07l10.1 10.1c0.585 0.585 1.35 0.878 2.12 0.878s1.54-0.293 2.12-0.879c1.17-1.17 1.17-3.07 0-4.24l-9.8-9.81z"/><path d="m16.1 34.1l-10.1 10.1v-4.07c0-1.66-1.34-3-3-3s-3 1.34-3 3v10.8c0 0.891 0.396 1.68 1.01 2.23 0.17 0.19 0.355 0.365 0.568 0.507 0.071 0.048 0.148 0.08 0.222 0.121 0.097 0.054 0.191 0.111 0.294 0.154 0.098 0.041 0.199 0.063 0.3 0.094 0.087 0.025 0.17 0.059 0.26 0.076 0.194 0.039 0.391 0.06 0.587 0.06h10.8c1.66 0 3-1.34 3-3s-1.34-3-3-3h-3.59l9.88-9.88c1.17-1.17 1.17-3.07 0-4.24-1.1-1.1-3-1.1-4.2 0z"/><path d="m52.3 37.2c-1.66 0-3 1.34-3 3v4.07l-10.1-10.2c-1.17-1.17-3.07-1.17-4.24 0s-1.17 3.07 0 4.24l9.88 9.88h-3.6c-1.66 0-3 1.34-3 3s1.34 3 3 3h10.8c0.196 0 0.394-0.021 0.587-0.06 0.093-0.018 0.178-0.052 0.268-0.079 0.098-0.029 0.197-0.051 0.292-0.09 0.107-0.045 0.206-0.105 0.308-0.162 0.069-0.039 0.142-0.068 0.208-0.113 0.213-0.143 0.399-0.316 0.569-0.508 0.615-0.549 1.01-1.34 1.01-2.23v-10.8c-0.1-1.6-1.4-2.9-3.1-2.9z"/><path d="m37 22.1c0.768 0 1.54-0.293 2.12-0.879l10.1-10.1v4.07c0 1.66 1.34 3 3 3s3-1.34 3-3v-10.9c0-0.89-0.396-1.68-1.01-2.23-0.169-0.19-0.355-0.365-0.567-0.507-0.069-0.046-0.144-0.077-0.215-0.117-0.1-0.055-0.195-0.115-0.302-0.159-0.097-0.04-0.197-0.063-0.297-0.092-0.087-0.026-0.171-0.06-0.263-0.078-0.193-0.039-0.39-0.059-0.587-0.059h-10.8c-1.66 0-3 1.34-3 3s1.34 3 3 3h3.59l-9.88 9.88c-1.17 1.17-1.17 3.07 0 4.24 0.6 0.7 1.4 1 2.2 1z"/></svg>
