<svg xmlns="http://www.w3.org/2000/svg" height="1.25e3pt" width="1.28e3pt" version="1.0" preserveAspectRatio="xMidYMid meet" viewBox="0 0 1280.000000 1253.000000"><g transform="translate(0 1.25e3) scale(0.1 -0.1)"><path d="m1.2e4 1.25e4c-766-82-2.06e3 -1.04e3 -3.97e3 -2.93e3 -1.16e3 -1.15e3 -2.57e3 -2.68e3 -3.67e3 -3.98e3l-183-216-151 79c-269 141-759 385-990 493-1.08e3 507-1.78e3 723-2.27e3 703-170-7-264-29-395-93-78-39-109-61-175-128-139-139-199-290-199-496 0-182 7-192 324-487 400-373 884-874 1.21e3 -1.25e3 790-918 1.59e3 -2.11e3 2.53e3 -3.77e3 166-293 199-341 257-381 142-98 318-88 449 24 53 46 85 108 183 355 471 1.18e3 1.08e3 2.48e3 1.69e3 3.59e3 1.02e3 1.87e3 2.16e3 3.51e3 3.48e3 4.99e3 505 570 961 1.04e3 1.78e3 1.83e3 563 541 725 717 810 876 141 264 87 518-143 673-138 93-362 140-567 118z"/></g></svg>
