<svg enable-background="new 0 0 1000 1000" version="1.1" viewBox="0 0 1e3 1e3" xmlns="http://www.w3.org/2000/svg">
	<path d="m167.2 316v607.6c0 36.7 29.7 66.4 66.4 66.4h534.8c36.7 0 66.4-29.7 66.4-66.4v-607.6h-667.6zm181.3 550.3h-59.8v-431.6h59.8v431.6zm120.7 0h-59.8v-431.6h59.8v431.6zm121.2 0h-59.8v-431.6h59.8v431.6zm120.7 0h-59.8v-431.6h59.8v431.6zm116.3-734.1h-106.8v-55.8c0-36.7-29.7-66.4-66.4-66.4h-290.1c-36.7 0-66.4 29.7-66.4 66.4v55.8h-125.2c-36.7 0-66.5 29.7-66.5 66.4v54.3h787.9v-54.3c0-36.6-29.7-66.4-66.5-66.4zm-167.2 0.4h-302.8v-60.9h302.8v60.9z"/>
</svg>
