<svg style="enable-background:new 0 0 55.342 55.342" xmlns="http://www.w3.org/2000/svg" viewBox="0 0 55.342 55.342" version="1.1" y="0px" x="0px"><path d="m18.2 5.02c-1.66 0-3 1.34-3 3v4.07l-10.1-10.1c-1.15-1.2-3.05-1.2-4.22-0.03s-1.17 3.07 0 4.24l9.88 9.88h-3.63c-1.66 0-3 1.34-3 3s1.34 3 3 3h10.8c0.197 0 0.394-0.021 0.587-0.059 0.088-0.018 0.169-0.051 0.254-0.076 0.103-0.03 0.207-0.054 0.306-0.095 0.1-0.042 0.189-0.098 0.283-0.149 0.078-0.042 0.159-0.077 0.233-0.126 0.162-0.108 0.312-0.23 0.449-0.367 0.002-0.003 0.006-0.004 0.008-0.007 0.006-0.006 0.009-0.013 0.015-0.019 0.034-0.035 0.061-0.077 0.094-0.114 0.616-0.55 1.01-1.34 1.01-2.23v-10.9c0-1.63-1.3-2.98-3-2.98z"/><path d="m20.2 34.3c-0.17-0.19-0.355-0.365-0.568-0.507-0.072-0.048-0.149-0.081-0.224-0.122-0.097-0.053-0.189-0.111-0.292-0.153-0.099-0.041-0.201-0.064-0.302-0.094-0.086-0.025-0.168-0.059-0.258-0.076-0.194-0.039-0.391-0.06-0.587-0.06h-10.7c-1.66 0-3 1.34-3 3s1.34 3 3 3h3.59l-9.88 9.88c-1.17 1.17-1.17 3.07 0 4.24 0.54 0.7 1.31 0.9 2.08 0.9s1.54-0.293 2.12-0.879l10.1-10.1v4.07c0 1.66 1.34 3 3 3s3-1.34 3-3v-10.8c0-0.9-0.3-1.7-1-2.2z"/><path d="m54.5 49.1l-9.88-9.88h3.59c1.66 0 3-1.34 3-3s-1.34-3-3-3h-10.8c-0.196 0-0.394 0.021-0.587 0.06-0.093 0.018-0.179 0.052-0.268 0.079-0.098 0.029-0.197 0.051-0.292 0.09-0.108 0.045-0.207 0.106-0.309 0.163-0.068 0.038-0.141 0.068-0.207 0.112-0.213 0.142-0.399 0.316-0.569 0.508-0.615 0.549-1.01 1.34-1.01 2.23v10.8c0 1.66 1.34 3 3 3s3-1.34 3-3v-4.07l10.1 10.2c0.586 0.586 1.35 0.879 2.12 0.879s1.54-0.293 2.12-0.879c1.2-1.2 1.2-3.1 0.1-4.3z"/><path d="m35 21.1c0.169 0.19 0.355 0.365 0.568 0.507 0.068 0.046 0.142 0.077 0.213 0.116 0.1 0.056 0.196 0.115 0.303 0.16 0.097 0.04 0.196 0.063 0.296 0.092 0.088 0.026 0.172 0.06 0.264 0.078 0.193 0.039 0.39 0.059 0.587 0.059h10.8c1.66 0 3-1.34 3-3s-1.34-3-3-3h-3.59l9.88-9.88c1.17-1.17 1.17-3.07 0-4.24s-3.07-1.17-4.24 0l-10.2 10v-4.07c0-1.66-1.34-3-3-3s-3 1.34-3 3v10.8c0 0.9 0.4 1.7 1 2.3z"/></svg>
