<?xml version="1.0" encoding="UTF-8" standalone="no"?>
<!-- Generator: Adobe Illustrator 19.0.0, SVG Export Plug-In . SVG Version: 6.00 Build 0)  -->

<svg
   xmlns:dc="http://purl.org/dc/elements/1.1/"
   xmlns:cc="http://creativecommons.org/ns#"
   xmlns:rdf="http://www.w3.org/1999/02/22-rdf-syntax-ns#"
   xmlns:svg="http://www.w3.org/2000/svg"
   xmlns="http://www.w3.org/2000/svg"
   xmlns:sodipodi="http://sodipodi.sourceforge.net/DTD/sodipodi-0.dtd"
   xmlns:inkscape="http://www.inkscape.org/namespaces/inkscape"
   version="1.1"
   id="Layer_1"
   x="0px"
   y="0px"
   viewBox="0 0 481.882 481.882"
   style="enable-background:new 0 0 481.882 481.882;"
   xml:space="preserve"
   sodipodi:docname="save.svg"
   inkscape:version="0.92.4 (5da689c313, 2019-01-14)"><metadata
   id="metadata55"><rdf:RDF><cc:Work
       rdf:about=""><dc:format>image/svg+xml</dc:format><dc:type
         rdf:resource="http://purl.org/dc/dcmitype/StillImage" /><dc:title></dc:title></cc:Work></rdf:RDF></metadata><defs
   id="defs53" /><sodipodi:namedview
   pagecolor="#ffffff"
   bordercolor="#666666"
   borderopacity="1"
   objecttolerance="10"
   gridtolerance="10"
   guidetolerance="10"
   inkscape:pageopacity="0"
   inkscape:pageshadow="2"
   inkscape:window-width="1920"
   inkscape:window-height="1008"
   id="namedview51"
   showgrid="false"
   inkscape:zoom="0.69260609"
   inkscape:cx="237.4528"
   inkscape:cy="263.60062"
   inkscape:window-x="1050"
   inkscape:window-y="49"
   inkscape:window-maximized="1"
   inkscape:current-layer="g69" />


<g
   id="g69"
   transform="rotate(180,240.941,240.9415)"><rect
     style="fill:#ffffff;stroke-width:0.81091529"
     id="rect142"
     width="319.08469"
     height="219.46095"
     x="-400.4227"
     y="-481.88199"
     transform="scale(-1)" /><g
     id="g12">
	<g
   id="g10">
		<path
   id="path8"
   d="m 114.941,0 v 147.117 c 0,4.232 3.441,7.673 7.669,7.673 h 236.654 c 4.235,0 7.677,-3.442 7.677,-7.673 V 0 Z M 336.163,126.856 H 298.12 V 42.992 h 38.044 v 83.864 z"
   inkscape:connector-curvature="0" />
	</g>
</g><g
     id="g18">
	<g
   id="g16">
		<path
   id="path14"
   d="M 473.941,72.867 429.22751,7.93 C 424.18351,2.889 417.19851,0 410.07351,0 h -7.86 v 167.33051 c 0,12.533 -10.198,22.732 -22.736,22.732 h -269.8619 c -12.530009,0 -22.728009,-10.199 -22.728009,-22.732 V 0 L 27.088,0 C 12.154,0 0,12.154 0,27.092 V 454.79 c 0,14.938 12.154,27.092 27.088,27.092 h 54.25 l 0,-209.85 c 0,-4.158 3.368,-7.529 7.529,-7.529 h 304.147 c 4.162,0 7.529,3.372 7.529,7.529 v 209.85 h 54.243 c 14.941,0 27.096,-12.155 27.096,-27.092 V 92.021 c 0,-7.131 -2.897,-14.11 -7.941,-19.154 z"
   inkscape:connector-curvature="0"
   sodipodi:nodetypes="ccscsssscsssscsssscsssc" />
	</g>
</g></g>
<g
   id="g20">
</g>
<g
   id="g22">
</g>
<g
   id="g24">
</g>
<g
   id="g26">
</g>
<g
   id="g28">
</g>
<g
   id="g30">
</g>
<g
   id="g32">
</g>
<g
   id="g34">
</g>
<g
   id="g36">
</g>
<g
   id="g38">
</g>
<g
   id="g40">
</g>
<g
   id="g42">
</g>
<g
   id="g44">
</g>
<g
   id="g46">
</g>
<g
   id="g48">
</g>
</svg>