<svg width="573" version="1.1" viewBox="0 0 704 290.18" xmlns="http://www.w3.org/2000/svg">
	<title>ANSI US QWERTY (Windows)</title>
	<desc>ANSI US QWERTY keyboard layout for Windows</desc>
	<g class = "keyboard" transform="matrix(.87562 0 0 .87562 -7.4428 -7.7055)">
		<g class = "caps">
			<path class="key [[Escape]]" d="m13.5 9.8h38c2.2 0 4 1.8 4 4v38c0 2.2-1.8 4-4 4h-38c-2.2 0-4-1.8-4-4v-38c0-2.3 1.8-4 4-4z"/>

			<path class="key [[F1]]" d="m121.5 9.8h38c2.2 0 4 1.8 4 4v38c0 2.2-1.8 4-4 4h-38c-2.2 0-4-1.8-4-4v-38c0-2.3 1.8-4 4-4z"/>

			<path class="key [[F2]]" d="m175.5 9.8h38c2.2 0 4 1.8 4 4v38c0 2.2-1.8 4-4 4h-38c-2.2 0-4-1.8-4-4v-38c0-2.3 1.8-4 4-4z"/>

			<path class="key [[F3]]" d="m229.5 9.8h38c2.2 0 4 1.8 4 4v38c0 2.2-1.8 4-4 4h-38c-2.2 0-4-1.8-4-4v-38c0-2.3 1.8-4 4-4z"/>

			<path class="key [[F4]]" d="m283.5 9.8h38c2.2 0 4 1.8 4 4v38c0 2.2-1.8 4-4 4h-38c-2.2 0-4-1.8-4-4v-38c0-2.3 1.8-4 4-4z"/>

			<path class="key [[F5]]" d="m364.5 9.8h38c2.2 0 4 1.8 4 4v38c0 2.2-1.8 4-4 4h-38c-2.2 0-4-1.8-4-4v-38c0-2.3 1.8-4 4-4z"/>

			<path class="key [[F6]]" d="m418.5 9.8h38c2.2 0 4 1.8 4 4v38c0 2.2-1.8 4-4 4h-38c-2.2 0-4-1.8-4-4v-38c0-2.3 1.8-4 4-4z"/>

			<path class="key [[F7]]" d="m472.5 9.8h38c2.2 0 4 1.8 4 4v38c0 2.2-1.8 4-4 4h-38c-2.2 0-4-1.8-4-4v-38c0-2.3 1.8-4 4-4z"/>

			<path class="key [[F8]]" d="m526.5 9.8h38c2.2 0 4 1.8 4 4v38c0 2.2-1.8 4-4 4h-38c-2.2 0-4-1.8-4-4v-38c0-2.3 1.8-4 4-4z"/>

			<path class="key [[F9]]" d="m607.5 9.8h38c2.2 0 4 1.8 4 4v38c0 2.2-1.8 4-4 4h-38c-2.2 0-4-1.8-4-4v-38c0-2.3 1.8-4 4-4z"/>

			<path class="key [[F10]]" d="m661.5 9.8h38c2.2 0 4 1.8 4 4v38c0 2.2-1.8 4-4 4h-38c-2.2 0-4-1.8-4-4v-38c0-2.3 1.8-4 4-4z"/>

			<path class="key [[F11]]" d="m715.5 9.8h38c2.2 0 4 1.8 4 4v38c0 2.2-1.8 4-4 4h-38c-2.2 0-4-1.8-4-4v-38c0-2.3 1.8-4 4-4z"/>

			<path class="key [[F12]]" d="m769.5 9.8h38c2.2 0 4 1.8 4 4v38c0 2.2-1.8 4-4 4h-38c-2.2 0-4-1.8-4-4v-38c0-2.3 1.8-4 4-4z"/>

			<path class="key [[Backquote]]" d="m13.5 77.2h38c2.2 0 4 1.8 4 4v38c0 2.2-1.8 4-4 4h-38c-2.2 0-4-1.8-4-4v-38c0-2.2 1.8-4 4-4z"/>

			<path class="key [[Digit1]]" d="m67.5 77.2h38c2.2 0 4 1.8 4 4v38c0 2.2-1.8 4-4 4h-38c-2.2 0-4-1.8-4-4v-38c0-2.2 1.8-4 4-4z"/>

			<path class="key [[Digit2]]" d="m121.5 77.2h38c2.2 0 4 1.8 4 4v38c0 2.2-1.8 4-4 4h-38c-2.2 0-4-1.8-4-4v-38c0-2.2 1.8-4 4-4z"/>

			<path class="key [[Digit3]]" d="m175.5 77.2h38c2.2 0 4 1.8 4 4v38c0 2.2-1.8 4-4 4h-38c-2.2 0-4-1.8-4-4v-38c0-2.2 1.8-4 4-4z"/>

			<path class="key [[Digit4]]" d="m229.5 77.2h38c2.2 0 4 1.8 4 4v38c0 2.2-1.8 4-4 4h-38c-2.2 0-4-1.8-4-4v-38c0-2.2 1.8-4 4-4z"/>

			<path class="key [[Digit5]]" d="m283.5 77.2h38c2.2 0 4 1.8 4 4v38c0 2.2-1.8 4-4 4h-38c-2.2 0-4-1.8-4-4v-38c0-2.2 1.8-4 4-4z"/>

			<path class="key [[Digit6]]" d="m337.5 77.2h38c2.2 0 4 1.8 4 4v38c0 2.2-1.8 4-4 4h-38c-2.2 0-4-1.8-4-4v-38c0-2.2 1.8-4 4-4z"/>

			<path class="key [[Digit7]]" d="m391.5 77.2h38c2.2 0 4 1.8 4 4v38c0 2.2-1.8 4-4 4h-38c-2.2 0-4-1.8-4-4v-38c0-2.2 1.8-4 4-4z"/>

			<path class="key [[Digit8]]" d="m445.5 77.2h38c2.2 0 4 1.8 4 4v38c0 2.2-1.8 4-4 4h-38c-2.2 0-4-1.8-4-4v-38c0-2.2 1.8-4 4-4z"/>

			<path class="key [[Digit9]]" d="m499.5 77.2h38c2.2 0 4 1.8 4 4v38c0 2.2-1.8 4-4 4h-38c-2.2 0-4-1.8-4-4v-38c0-2.2 1.8-4 4-4z"/>

			<path class="key [[Digit0]]" d="m553.5 77.2h38c2.2 0 4 1.8 4 4v38c0 2.2-1.8 4-4 4h-38c-2.2 0-4-1.8-4-4v-38c0-2.2 1.8-4 4-4z"/>

			<path class="key [[Minus]]" d="m607.5 77.2h38c2.2 0 4 1.8 4 4v38c0 2.2-1.8 4-4 4h-38c-2.2 0-4-1.8-4-4v-38c0-2.2 1.8-4 4-4z"/>

			<path class="key [[Equal]]" d="m661.5 77.2h38c2.2 0 4 1.8 4 4v38c0 2.2-1.8 4-4 4h-38c-2.2 0-4-1.8-4-4v-38c0-2.2 1.8-4 4-4z"/>

			<path class="key [[Backspace]]" d="m715.5 77.2h92c2.2 0 4 1.8 4 4v38c0 2.2-1.8 4-4 4h-92c-2.2 0-4-1.8-4-4v-38c0-2.2 1.8-4 4-4z"/>

			<path class="key [[Tab]]" d="m13.5 131.2h65c2.2 0 4 1.8 4 4v38c0 2.2-1.8 4-4 4h-65c-2.2 0-4-1.8-4-4v-38c0-2.2 1.8-4 4-4z"/>

			<path class="key [[KeyQ]]" d="m94.5 131.2h38c2.2 0 4 1.8 4 4v38c0 2.2-1.8 4-4 4h-38c-2.2 0-4-1.8-4-4v-38c0-2.2 1.8-4 4-4z"/>

			<path class="key [[KeyW]]" d="m148.5 131.2h38c2.2 0 4 1.8 4 4v38c0 2.2-1.8 4-4 4h-38c-2.2 0-4-1.8-4-4v-38c0-2.2 1.8-4 4-4z"/>

			<path class="key [[KeyE]]" d="m202.5 131.2h38c2.2 0 4 1.8 4 4v38c0 2.2-1.8 4-4 4h-38c-2.2 0-4-1.8-4-4v-38c0-2.2 1.8-4 4-4z"/>

			<path class="key [[KeyR]]" d="m256.5 131.2h38c2.2 0 4 1.8 4 4v38c0 2.2-1.8 4-4 4h-38c-2.2 0-4-1.8-4-4v-38c0-2.2 1.8-4 4-4z"/>

			<path class="key [[KeyT]]" d="m310.5 131.2h38c2.2 0 4 1.8 4 4v38c0 2.2-1.8 4-4 4h-38c-2.2 0-4-1.8-4-4v-38c0-2.2 1.8-4 4-4z"/>

			<path class="key [[KeyY]]" d="m364.5 131.2h38c2.2 0 4 1.8 4 4v38c0 2.2-1.8 4-4 4h-38c-2.2 0-4-1.8-4-4v-38c0-2.2 1.8-4 4-4z"/>

			<path class="key [[KeyU]]" d="m418.5 131.2h38c2.2 0 4 1.8 4 4v38c0 2.2-1.8 4-4 4h-38c-2.2 0-4-1.8-4-4v-38c0-2.2 1.8-4 4-4z"/>

			<path class="key [[KeyI]]" d="m472.5 131.2h38c2.2 0 4 1.8 4 4v38c0 2.2-1.8 4-4 4h-38c-2.2 0-4-1.8-4-4v-38c0-2.2 1.8-4 4-4z"/>

			<path class="key [[KeyO]]" d="m526.5 131.2h38c2.2 0 4 1.8 4 4v38c0 2.2-1.8 4-4 4h-38c-2.2 0-4-1.8-4-4v-38c0-2.2 1.8-4 4-4z"/>

			<path class="key [[KeyP]]" d="m580.5 131.2h38c2.2 0 4 1.8 4 4v38c0 2.2-1.8 4-4 4h-38c-2.2 0-4-1.8-4-4v-38c0-2.2 1.8-4 4-4z"/>

			<path class="key [[BracketLeft]]" d="m634.5 131.2h38c2.2 0 4 1.8 4 4v38c0 2.2-1.8 4-4 4h-38c-2.2 0-4-1.8-4-4v-38c0-2.2 1.8-4 4-4z"/>

			<path class="key [[BracketRight]]" d="m688.5 131.2h38c2.2 0 4 1.8 4 4v38c0 2.2-1.8 4-4 4h-38c-2.2 0-4-1.8-4-4v-38c0-2.2 1.8-4 4-4z"/>

			<path class="key [[Backslash]]" d="m742.5 131.2h65c2.2 0 4 1.8 4 4v38c0 2.2-1.8 4-4 4h-65c-2.2 0-4-1.8-4-4v-38c0-2.2 1.8-4 4-4z"/>

			<path class="key [[CapsLock]]" d="m13.5 185.2h78.5c2.2 0 4 1.8 4 4v38c0 2.2-1.8 4-4 4h-78.5c-2.2 0-4-1.8-4-4v-38c0-2.2 1.8-4 4-4z"/>

			<path class="key [[KeyA]]" d="m108 185.2h38c2.2 0 4 1.8 4 4v38c0 2.2-1.8 4-4 4h-38c-2.2 0-4-1.8-4-4v-38c0-2.2 1.8-4 4-4z"/>

			<path class="key [[KeyS]]" d="m162 185.2h38c2.2 0 4 1.8 4 4v38c0 2.2-1.8 4-4 4h-38c-2.2 0-4-1.8-4-4v-38c0-2.2 1.8-4 4-4z"/>

			<path class="key [[KeyD]]" d="m216 185.2h38c2.2 0 4 1.8 4 4v38c0 2.2-1.8 4-4 4h-38c-2.2 0-4-1.8-4-4v-38c0-2.2 1.8-4 4-4z"/>

			<path class="key [[KeyF]]" d="m270 185.2h38c2.2 0 4 1.8 4 4v38c0 2.2-1.8 4-4 4h-38c-2.2 0-4-1.8-4-4v-38c0-2.2 1.8-4 4-4z"/>

			<path class="key [[KeyG]]" d="m324 185.2h38c2.2 0 4 1.8 4 4v38c0 2.2-1.8 4-4 4h-38c-2.2 0-4-1.8-4-4v-38c0-2.2 1.8-4 4-4z"/>

			<path class="key [[KeyH]]" d="m378 185.2h38c2.2 0 4 1.8 4 4v38c0 2.2-1.8 4-4 4h-38c-2.2 0-4-1.8-4-4v-38c0-2.2 1.8-4 4-4z"/>

			<path class="key [[KeyJ]]" d="m432 185.2h38c2.2 0 4 1.8 4 4v38c0 2.2-1.8 4-4 4h-38c-2.2 0-4-1.8-4-4v-38c0-2.2 1.8-4 4-4z"/>

			<path class="key [[KeyK]]" d="m486 185.2h38c2.2 0 4 1.8 4 4v38c0 2.2-1.8 4-4 4h-38c-2.2 0-4-1.8-4-4v-38c0-2.2 1.8-4 4-4z"/>

			<path class="key [[KeyL]]" d="m540 185.2h38c2.2 0 4 1.8 4 4v38c0 2.2-1.8 4-4 4h-38c-2.2 0-4-1.8-4-4v-38c0-2.2 1.8-4 4-4z"/>

			<path class="key [[Semicolon]]" d="m594 185.2h38c2.2 0 4 1.8 4 4v38c0 2.2-1.8 4-4 4h-38c-2.2 0-4-1.8-4-4v-38c0-2.2 1.8-4 4-4z"/>

			<path class="key [[Quote]]" d="m648 185.2h38c2.2 0 4 1.8 4 4v38c0 2.2-1.8 4-4 4h-38c-2.2 0-4-1.8-4-4v-38c0-2.2 1.8-4 4-4z"/>

			<path class="key [[Enter]]" d="m702 185.2h105.5c2.2 0 4 1.8 4 4v38c0 2.2-1.8 4-4 4h-105.5c-2.2 0-4-1.8-4-4v-38c0-2.2 1.8-4 4-4z"/>

			<path class="key [[ShiftLeft]]" d="m13.5 239.2h105.5c2.2 0 4 1.8 4 4v38c0 2.2-1.8 4-4 4h-105.5c-2.2 0-4-1.8-4-4v-38c0-2.2 1.8-4 4-4z"/>

			<path class="key [[KeyZ]]" d="m135 239.2h38c2.2 0 4 1.8 4 4v38c0 2.2-1.8 4-4 4h-38c-2.2 0-4-1.8-4-4v-38c0-2.2 1.8-4 4-4z"/>

			<path class="key [[KeyX]]" d="m189 239.2h38c2.2 0 4 1.8 4 4v38c0 2.2-1.8 4-4 4h-38c-2.2 0-4-1.8-4-4v-38c0-2.2 1.8-4 4-4z"/>

			<path class="key [[KeyC]]" d="m243 239.2h38c2.2 0 4 1.8 4 4v38c0 2.2-1.8 4-4 4h-38c-2.2 0-4-1.8-4-4v-38c0-2.2 1.8-4 4-4z"/>

			<path class="key [[KeyV]]" d="m297 239.2h38c2.2 0 4 1.8 4 4v38c0 2.2-1.8 4-4 4h-38c-2.2 0-4-1.8-4-4v-38c0-2.2 1.8-4 4-4z"/>

			<path class="key [[KeyB]]" d="m351 239.2h38c2.2 0 4 1.8 4 4v38c0 2.2-1.8 4-4 4h-38c-2.2 0-4-1.8-4-4v-38c0-2.2 1.8-4 4-4z"/>

			<path class="key [[KeyN]]" d="m405 239.2h38c2.2 0 4 1.8 4 4v38c0 2.2-1.8 4-4 4h-38c-2.2 0-4-1.8-4-4v-38c0-2.2 1.8-4 4-4z"/>

			<path class="key [[KeyM]]" d="m459 239.2h38c2.2 0 4 1.8 4 4v38c0 2.2-1.8 4-4 4h-38c-2.2 0-4-1.8-4-4v-38c0-2.2 1.8-4 4-4z"/>

			<path class="key [[Comma]]" d="m513 239.2h38c2.2 0 4 1.8 4 4v38c0 2.2-1.8 4-4 4h-38c-2.2 0-4-1.8-4-4v-38c0-2.2 1.8-4 4-4z"/>

			<path class="key [[Period]]" d="m567 239.2h38c2.2 0 4 1.8 4 4v38c0 2.2-1.8 4-4 4h-38c-2.2 0-4-1.8-4-4v-38c0-2.2 1.8-4 4-4z"/>

			<path class="key [[Slash]]" d="m621 239.2h38c2.2 0 4 1.8 4 4v38c0 2.2-1.8 4-4 4h-38c-2.2 0-4-1.8-4-4v-38c0-2.2 1.8-4 4-4z"/>

			<path class="key [[ShiftRight]]" d="m675 239.2h132.5c2.2 0 4 1.8 4 4v38c0 2.2-1.8 4-4 4h-132.5c-2.2 0-4-1.8-4-4v-38c0-2.2 1.8-4 4-4z"/>

			<path class="key [[ControlLeft]]" d="m13.5 293.2h51.5c2.2 0 4 1.8 4 4v38c0 2.2-1.8 4-4 4h-51.5c-2.2 0-4-1.8-4-4v-38c0-2.2 1.8-4 4-4z"/>

			<path class="key [[MetaLeft]]" d="m81 293.2h51.5c2.2 0 4 1.8 4 4v38c0 2.2-1.8 4-4 4h-51.5c-2.2 0-4-1.8-4-4v-38c0-2.2 1.8-4 4-4z"/>

			<path class="key [[AltLeft]]" d="m148.5 293.2h51.5c2.2 0 4 1.8 4 4v38c0 2.2-1.8 4-4 4h-51.5c-2.2 0-4-1.8-4-4v-38c0-2.2 1.8-4 4-4z"/>

			<path class="key [[Space]]" d="m216 293.2h321.5c2.2 0 4 1.8 4 4v38c0 2.2-1.8 4-4 4h-321.5c-2.2 0-4-1.8-4-4v-38c0-2.2 1.8-4 4-4z"/>

			<path class="key [[AltRight]]" d="m553.5 293.2h51.5c2.2 0 4 1.8 4 4v38c0 2.2-1.8 4-4 4h-51.5c-2.2 0-4-1.8-4-4v-38c0-2.2 1.8-4 4-4z"/>

			<path class="key [[MetaRight]]" d="m621 293.2h51.5c2.2 0 4 1.8 4 4v38c0 2.2-1.8 4-4 4h-51.5c-2.2 0-4-1.8-4-4v-38c0-2.2 1.8-4 4-4z"/>

			<path class="key [[ContextMenu]]" d="m688.5 293.2h51.5c2.2 0 4 1.8 4 4v38c0 2.2-1.8 4-4 4h-51.5c-2.2 0-4-1.8-4-4v-38c0-2.2 1.8-4 4-4z"/>

			<path class="key [[ControlRight]]" d="m756 293.2h51.5c2.2 0 4 1.8 4 4v38c0 2.2-1.8 4-4 4h-51.5c-2.2 0-4-1.8-4-4v-38c0-2.2 1.8-4 4-4z"/>
		</g>
		<g class = "glyphs">
			<path d="m141.4 29.3h-3.9v2.1h2.3v1.2h-2.3v3.4h-1.2v-7.9h5.1z"/>
			<path d="m144.7 36h-1.2v-6.1h-1.4v-0.8c0.8-0.1 1.5-0.3 1.6-1h1z"/>
			<path d="m193.8 29.3h-3.9v2.1h2.3v1.2h-2.3v3.4h-1.2v-7.9h5.1z"/>
			<path d="m200.4 36h-5.7c0.1-2.3 1.5-3.4 3-4.3 1.1-0.6 1.3-1 1.3-1.5 0-0.6-0.4-1-1.5-1-0.7 0-1.4 0.3-1.9 0.8l-0.6-1c0.7-0.7 1.7-1.1 2.7-1.1 1.6 0 2.7 0.7 2.7 2.2 0 1.2-0.6 1.7-2 2.6-1.5 0.9-1.9 1.4-2.1 2.2h4.2v1.1z"/>
			<path d="m247.9 29.3h-3.9v2.1h2.3v1.2h-2.3v3.4h-1.2v-7.9h5.1z"/>
			<path d="m254.5 33.7c0 1.6-1.1 2.5-3 2.5-1.1 0-2.3-0.5-2.9-1.3l0.9-0.8c0.5 0.6 1.2 0.9 2 0.9 1.3 0 1.7-0.5 1.7-1.3s-0.6-1.2-1.4-1.2h-0.7v-1.2h0.7c0.7 0 1.1-0.5 1.1-1.1 0-0.5-0.3-1.1-1.5-1.1-0.6 0-1.1 0.3-1.6 0.7l-0.8-0.8c0.7-0.7 1.5-1.1 2.5-1.1 1.5 0 2.7 0.8 2.7 2.2 0 1-0.4 1.4-1 1.7 0.7 0.3 1.3 0.9 1.3 1.9z"/>
			<path d="m301.6 29.3h-3.9v2.1h2.3v1.2h-2.3v3.4h-1.2v-7.9h5.1z"/>
			<path d="m309 34.2h-1.1v1.8h-1.2v-1.7h-4.3v-1.1l4.1-5.1h1.4v5.1h1.1zm-2.2-4.8c-0.1 0.2-0.5 0.6-0.7 0.9l-1.5 1.9c-0.2 0.3-0.6 0.7-0.7 0.9h3v-2.3c-0.1-0.4-0.1-1.1-0.1-1.4z"/>
			<path d="m382.7 29.3h-3.9v2.1h2.3v1.2h-2.3v3.4h-1.2v-7.9h5.1z"/>
			<path d="m389.7 33.3c0 1.9-1.3 2.8-3.1 2.8-1 0-1.9-0.2-2.8-0.8l0.6-1c0.7 0.4 1.5 0.6 2.2 0.6 1.2 0 1.9-0.6 1.9-1.6 0-0.9-0.6-1.4-1.6-1.4-0.7 0-1.1 0.2-1.5 0.5l-1.3-0.5 0.3-3.9h4.9v1.1h-3.8l-0.2 2c0.4-0.2 1-0.4 1.7-0.4 1.8 0.1 2.7 1.2 2.7 2.6z"/>
			<path d="m436.7 29.3h-3.9v2.1h2.3v1.2h-2.3v3.4h-1.2v-7.9h5.1z"/>
			<path d="m443.9 33.5c0 1.7-1.4 2.6-3.1 2.6s-3-0.9-3-3.2c0-2.1 1.2-4.9 4.9-5v1.1c-1.8 0.1-3.1 0.9-3.6 2.6 0.6-0.4 1.1-0.6 2.1-0.6 1.5 0 2.7 0.8 2.7 2.5zm-1.2 0c0-1-0.7-1.4-1.8-1.4-1.2 0-1.9 0.5-1.9 1.4 0 0.8 0.6 1.5 1.8 1.5s1.9-0.6 1.9-1.5z"/>
			<path d="m491 29.3h-3.9v2.1h2.3v1.2h-2.3v3.4h-1.2v-7.9h5.1z"/>
			<path d="m497.2 29.3c-1.3 1.5-2.6 3.8-2.6 6.7h-1.2c0-2.7 1-4.9 2.5-6.8h-4.2v-1.2h5.5z"/>
			<path d="m544.5 29.3h-3.9v2.1h2.3v1.2h-2.3v3.4h-1.2v-7.9h5.1z"/>
			<path d="m551.9 33.7c0 1.6-1.2 2.4-3.1 2.4s-3.1-0.9-3.1-2.4c0-1 0.5-1.6 1.4-2-0.8-0.3-1.1-1.1-1.1-1.5 0-1.5 1.2-2.2 2.8-2.2 1.4 0 2.8 0.7 2.8 2.2 0 0.5-0.2 1.2-1.1 1.6 0.9 0.3 1.4 0.9 1.4 1.9zm-1.2 0c0-0.8-0.6-1.4-1.9-1.4s-1.9 0.5-1.9 1.3 0.7 1.4 1.9 1.4c1.3 0.1 1.9-0.5 1.9-1.3zm-0.3-3.5c0-0.6-0.4-1.2-1.6-1.2s-1.6 0.5-1.6 1.1 0.6 1.1 1.6 1.1c1 0.1 1.6-0.4 1.6-1z"/>
			<path d="m625.7 29.3h-3.9v2.1h2.3v1.2h-2.3v3.4h-1.2v-7.9h5.1z"/>
			<path d="m632.8 31.1c0 2.1-1.2 4.9-4.9 5v-1.1c1.8-0.1 3.1-0.9 3.6-2.6-0.6 0.4-1.1 0.6-2.1 0.6-1.4 0-2.7-0.8-2.7-2.5s1.4-2.6 3.1-2.6c1.7 0.1 3 1 3 3.2zm-1.2-0.5c0-0.8-0.6-1.5-1.8-1.5s-1.9 0.6-1.9 1.5c0 1 0.7 1.4 1.8 1.4 1.2 0 1.9-0.5 1.9-1.4z"/>
			<path d="m677.7 29.3h-3.9v2.1h2.3v1.2h-2.3v3.4h-1.2v-7.9h5.1z"/>
			<path d="m680.9 36h-1.2v-6.1h-1.4v-0.8c0.8-0.1 1.5-0.3 1.6-1h1z"/>
			<path d="m688.9 32c0 2.4-1.1 4.1-3.1 4.1s-3.1-1.7-3.1-4.1 1.1-4.1 3.1-4.1c2 0.1 3.1 1.7 3.1 4.1zm-1.2 0.1c0-1.7-0.5-2.9-1.9-2.9s-1.9 1.3-1.9 2.9 0.6 2.9 1.9 2.9 1.9-1.3 1.9-2.9z"/>
			<path d="m733.5 29.3h-3.9v2.1h2.3v1.2h-2.3v3.4h-1.2v-7.9h5.1z"/>
			<path d="m736.7 36h-1.2v-6.1h-1.4v-0.8c0.8-0.1 1.5-0.3 1.6-1h1z"/>
			<path d="m740.6 36h-1.2v-6.1h-1.4v-0.8c0.8-0.1 1.5-0.3 1.6-1h1z"/>
			<path d="m785.8 29.3h-3.9v2.1h2.3v1.2h-2.3v3.4h-1.2v-7.9h5.1z"/>
			<path d="m789.1 36h-1.2v-6.1h-1.4v-0.8c0.8-0.1 1.5-0.3 1.6-1h1z"/>
			<path d="m796.4 36h-5.7c0.1-2.3 1.5-3.4 3-4.3 1.1-0.6 1.3-1 1.3-1.5 0-0.6-0.4-1-1.5-1-0.7 0-1.4 0.3-1.9 0.8l-0.8-0.9c0.7-0.7 1.7-1.1 2.7-1.1 1.6 0 2.7 0.7 2.7 2.2 0 1.2-0.6 1.7-2 2.6-1.5 0.9-2 1.4-2.1 2.2h4.2v1z"/>
			<path d="m35.9 89.7c-0.5 1.3-1.1 2-2.2 2-0.6 0-0.9-0.2-1.4-0.5-0.6-0.4-0.9-0.6-1.2-0.6-0.5 0-0.7 0.3-1 1.1l-1-0.5c0.5-1.3 1.1-2 2.2-2 0.6 0 0.9 0.2 1.4 0.5 0.5 0.4 0.9 0.6 1.2 0.6 0.5 0 0.7-0.3 1.1-1.1z"/>
			<path d="m33.9 104.2h-1.2l-2.3-2.3h2z"/>
			<path d="m87.6 94.8c0 0.6-0.5 1.1-1.1 1.1s-1.1-0.5-1.1-1.1 0.5-1.1 1.1-1.1 1.1 0.5 1.1 1.1zm-0.3-4.6-0.3 2.6h-1l-0.3-2.7v-4.4h1.5v4.5z"/>
			<path d="m87.6 112.7h-1.5v-7.6h-1.8v-1c1-0.1 1.9-0.4 2-1.3h1.2v9.9z"/>
			<path d="m145.6 89.1c0 2.1-0.9 2.9-2.2 2.9-0.7 0-1.3-0.4-1.5-0.9-0.3 0.5-1.1 0.9-1.8 0.9-1.1 0-2.2-0.6-2.2-1.9 0-1.2 1.1-1.8 2.3-1.8 0.6 0 1.1 0.2 1.4 0.4v-0.7c0-0.6-0.5-0.8-1.3-0.8-0.5 0-1 0.1-1.4 0.3l-0.4-0.7c0.5-0.3 1.2-0.5 1.8-0.5 1.3 0 2.2 0.6 2.2 1.7v2.4c0 0.5 0.3 0.9 0.9 0.9 0.9 0 1.2-0.7 1.2-2.1 0-2.3-1.8-4.2-4.3-4.2s-4.3 1.8-4.3 4.3 1.8 4.3 4.3 4.3c0.6 0 1.2-0.1 1.8-0.4l0.3 0.8c-0.8 0.4-1.4 0.5-2.2 0.5-3 0-5.1-2.2-5.1-5.1 0-3 2.2-5.1 5.1-5.1 3.3-0.1 5.4 2.2 5.4 4.8zm-3.9 1.3v-0.9c-0.3-0.2-0.8-0.4-1.5-0.4-0.8 0-1.3 0.3-1.3 1s0.5 1.1 1.4 1.1c0.5 0 1.1-0.3 1.4-0.8z"/>
			<path d="m143.8 111.3h-7.1c0.1-2.9 1.9-4.2 3.8-5.4 1.3-0.8 1.7-1.2 1.7-1.9 0-0.8-0.5-1.3-1.9-1.3-0.8 0-1.8 0.4-2.4 1l-0.9-1.1c0.9-0.8 2.2-1.3 3.4-1.3 2.1 0 3.4 0.9 3.4 2.7 0 1.5-0.8 2.2-2.5 3.2-1.9 1.1-2.4 1.8-2.7 2.7h5.3v1.4z"/>
			<path d="m198.8 93.4h-1.7v2.3h-1.4v-2.3h-2.3v2.3h-1.4v-2.3h-1.7v-1.3h1.7v-2.7h-1.7v-1.4h1.7v-2.3h1.4v2.3h2.3v-2.3h1.4v2.3h1.7v1.3h-1.7v2.7h1.7zm-3.1-1.3v-2.7h-2.3v2.7z"/>
			<path d="m197.8 109.7c0 2-1.4 3.1-3.7 3.1-1.4 0-2.9-0.6-3.6-1.6l1.1-1c0.6 0.8 1.5 1.1 2.4 1.1 1.6 0 2.2-0.6 2.2-1.6s-0.8-1.5-1.8-1.5h-0.9v-1.4h0.9c0.9 0 1.4-0.6 1.4-1.4 0-0.6-0.4-1.4-1.9-1.4-0.8 0-1.4 0.3-2 0.9l-1.1-1c0.8-0.9 1.8-1.3 3.1-1.3 1.9 0 3.4 1 3.4 2.7 0 1.2-0.5 1.8-1.2 2.2 1.1 0.2 1.7 1 1.7 2.2z"/>
			<path d="m252 92.7c0 1.6-0.9 2.7-2.8 2.9v1.4h-1.5v-1.4c-1.2-0.2-2.3-0.7-2.9-1.6l1.1-1c0.7 0.8 1.6 1.1 2.5 1.1 1.4 0 2-0.5 2-1.3s-0.6-1.1-2.2-1.6c-2.1-0.6-3.1-1.1-3.1-2.9 0-1.5 1.1-2.4 2.5-2.6v-1.5h1.5v1.5c1 0.2 1.8 0.6 2.5 1.3l-1 1c-0.7-0.6-1.3-1-2.3-1-1.1 0-1.6 0.5-1.6 1.1 0 0.7 0.4 1 2.1 1.5 2 0.8 3.2 1.3 3.2 3.1z"/>
			<path d="m252.5 110.5h-1.3v2.2h-1.4v-2.2h-5.4v-1.4l5.1-6.3h1.7v6.4h1.3zm-2.7-6.1c-0.2 0.3-0.6 0.8-0.9 1.2l-1.9 2.4c-0.3 0.4-0.7 0.9-0.9 1.1h3.7v-2.9c-0.1-0.5 0-1.4 0-1.8z"/>
			<path d="m301.2 88.7c0 1.8-1 3.1-2.5 3.1s-2.4-1.3-2.4-3.1 1-3.1 2.5-3.1c1.4 0 2.4 1.3 2.4 3.1zm-1.3 0c0-1.1-0.4-1.9-1.2-1.9s-1.2 0.7-1.2 1.8 0.4 1.9 1.2 1.9 1.2-0.8 1.2-1.8zm6.4-3-6.1 9.9h-1.4l6.1-9.9zm2.4 7c0 1.8-1 3.1-2.5 3.1-1.4 0-2.4-1.3-2.4-3.1s1-3.1 2.5-3.1c1.5 0.1 2.4 1.3 2.4 3.1zm-1.2 0.1c0-1.1-0.4-1.9-1.2-1.9s-1.2 0.7-1.2 1.8 0.4 1.9 1.2 1.9c0.7 0 1.2-0.8 1.2-1.8z"/>
			<path d="m306.1 109.3c0 2.4-1.6 3.5-3.9 3.5-1.3 0-2.4-0.3-3.5-1l0.7-1.2c0.8 0.5 1.9 0.8 2.8 0.8 1.5 0 2.4-0.8 2.4-2s-0.8-1.8-2-1.8c-0.8 0-1.4 0.2-1.9 0.6l-1.6-0.6 0.3-4.8h6.1v1.4h-4.8l-0.2 2.5c0.6-0.3 1.2-0.5 2.1-0.5 2.4 0 3.5 1.3 3.5 3.1z"/>
			<path d="m359.9 90.3h-1.6l-1.8-3-1.8 3h-1.6l2.9-4.5h1.1z"/>
			<path d="m360.4 109.5c0 2.2-1.7 3.3-3.9 3.3-2.1 0-3.7-1.1-3.7-4 0-2.6 1.4-6.1 6.2-6.3v1.4c-2.3 0.1-3.8 1.1-4.5 3.2 0.7-0.6 1.4-0.8 2.6-0.8 1.8 0.1 3.3 1.1 3.3 3.2zm-1.5 0.1c0-1.2-0.8-1.7-2.3-1.7-1.4 0-2.3 0.6-2.3 1.7 0 1 0.8 1.8 2.3 1.8s2.3-0.7 2.3-1.8z"/>
			<path d="m414.9 95.7h-1.7l-0.8-0.9c-0.7 0.7-1.7 1.1-2.8 1.1-2.1 0-3.1-1.1-3.1-2.7 0-1.3 0.7-2.2 2.1-2.9l-0.2-0.2c-0.7-0.8-0.9-1.4-0.9-2.1 0-1.4 1.1-2.3 2.8-2.3 0.9 0 1.8 0.3 2.7 0.9l-0.7 1.2c-0.8-0.6-1.3-0.8-2.1-0.8s-1.1 0.3-1.1 0.9c0 0.4 0.1 0.7 0.5 1.2l2.9 3.6c0.3-0.5 0.5-1.1 0.7-1.6l1.3 0.4c-0.2 0.8-0.6 1.7-1.1 2.4zm-3.4-2-2.1-2.5c-0.9 0.5-1.4 1-1.4 1.9 0 0.8 0.5 1.4 1.7 1.4 0.7 0 1.3-0.3 1.8-0.8z"/>
			<path d="m413.6 104.3c-1.7 1.9-3.2 4.7-3.3 8.4h-1.5c0.1-3.4 1.2-6.1 3.1-8.5h-5.2v-1.4h6.9z"/>
			<path d="m467.3 89.5-0.6 1.1-1.8-1.3 0.2 2.2h-1.2l0.2-2.2-1.8 1.3-0.6-1.1 2-0.9-2-0.9 0.6-1.1 1.8 1.3-0.2-2.2h1.2l-0.2 2.1 1.7-1.3 0.6 1.1-2 0.9z"/>
			<path d="m468.4 109.8c0 2-1.5 3-3.9 3s-3.9-1.1-3.9-3c0-1.2 0.6-2 1.8-2.5-1-0.4-1.3-1.3-1.3-1.9 0-1.9 1.5-2.8 3.5-2.8 1.8 0 3.5 0.9 3.5 2.8 0 0.6-0.3 1.5-1.3 1.9 0.9 0.4 1.6 1.2 1.6 2.5zm-1.5 0c0-1-0.8-1.7-2.4-1.7s-2.4 0.6-2.4 1.6 0.9 1.7 2.4 1.7c1.6 0.1 2.4-0.6 2.4-1.6zm-0.4-4.4c0-0.8-0.5-1.5-2-1.5-1.4 0-2 0.7-2 1.4 0 0.8 0.8 1.4 2 1.4 1.3 0 2-0.6 2-1.3z"/>
			<path d="m520.3 96.6-0.7 0.6c-1.4-1.3-2.8-3.2-2.8-5.8 0-2.7 1.3-4.5 2.8-5.9l0.7 0.6c-1.3 1.4-2 3-2 5.2 0.1 2.4 0.8 3.9 2 5.3z"/>
			<path d="m522.2 106.6c0 2.6-1.4 6.1-6.2 6.3v-1.4c2.3-0.1 3.8-1.1 4.5-3.2-0.7 0.6-1.4 0.8-2.6 0.8-1.8 0-3.3-1-3.3-3.1 0-2.2 1.7-3.3 3.9-3.3 2.1-0.1 3.7 1 3.7 3.9zm-1.5-0.7c0-1-0.8-1.8-2.3-1.8s-2.3 0.7-2.3 1.8c0 1.2 0.8 1.7 2.3 1.7 1.4 0 2.3-0.6 2.3-1.7z"/>
			<path d="m574.2 91.3c0 2.7-1.3 4.5-2.8 5.9l-0.7-0.6c1.3-1.4 2-3 2-5.2 0-2.3-0.8-3.9-2-5.2l0.7-0.6c1.4 1.3 2.8 3.2 2.8 5.7z"/>
			<path d="m576.4 107.7c0 3-1.4 5.1-3.9 5.1-2.6 0-3.9-2.1-3.9-5.1s1.4-5.1 3.9-5.1c2.6 0 3.9 2.1 3.9 5.1zm-1.5 0c0-2.1-0.7-3.7-2.4-3.7s-2.4 1.6-2.4 3.7 0.7 3.7 2.4 3.7c1.8 0 2.4-1.6 2.4-3.7z"/>
			<path d="m630 98.2h-7v-1.3h7.1v1.3z"/>
			<path d="m628.3 108.2h-3.5v-1.4h3.5z"/>
			<path d="m683.9 91.5h-2.7v2.8h-1.5v-2.8h-2.7v-1.4h2.7v-2.8h1.5v2.8h2.7z"/>
			<path d="m683.6 106.9h-6.1v-1.4h6.1zm0 3.2h-6.1v-1.4h6.1z"/>
			<path d="m117.7 153.2c0 1.7-0.6 3.2-1.5 4.1l0.7 1-1.2 0.8-0.7-1c-0.4 0.2-0.9 0.3-1.5 0.3-2.6 0-4.2-2.1-4.2-5.1s1.6-5.1 4.2-5.1c2.6-0.1 4.2 2 4.2 5zm-1.5 0c0-2.2-0.9-3.6-2.7-3.6-1.7 0-2.7 1.4-2.7 3.6s0.9 3.7 2.7 3.7c0.3 0 0.5 0 0.7-0.1l-0.7-1.1 1.2-0.8 0.7 1.1c0.5-0.6 0.8-1.6 0.8-2.8z"/>
			<path d="m172.9 148.2-2 9.9h-1.5l-1.5-6.4c-0.1-0.3-0.2-1.1-0.3-1.3 0 0.2-0.2 1-0.3 1.3l-1.6 6.4h-1.5l-2-9.9h1.5l1.2 6.3c0.1 0.3 0.2 1 0.2 1.3 0.1-0.3 0.2-1 0.3-1.3l1.6-6.3h1.3l1.6 6.4c0.1 0.3 0.2 0.8 0.2 1.1 0.1-0.4 0.2-0.9 0.2-1.2l1.2-6.4h1.4z"/>
			<path d="m225 158.2h-6.6v-9.9h6.4v1.4h-4.9v2.5h2.8v1.4h-2.8v3.1h5.1z"/>
			<path d="m279.4 151.2c0 1.6-0.8 2.6-2.2 2.9l2 4.1h-1.7l-2-3.9h-2.2v3.9h-1.5v-9.9h4.4c1.8-0.1 3.2 0.9 3.2 2.9zm-1.5 0.1c0-1-0.7-1.6-1.7-1.6h-2.9v3.2h2.9c1-0.1 1.7-0.6 1.7-1.6z"/>
			<path d="m333.1 149.7h-2.9v8.5h-1.5v-8.5h-2.9v-1.5h7.3z"/>
			<path d="m387.8 148.2-3.6 6v3.9h-1.5v-3.9l-3.6-6h1.7l1.5 2.7c0.3 0.6 0.9 1.6 1 2 0.2-0.4 0.7-1.3 1-2l1.6-2.8h1.9z"/>
			<path d="m441.3 154c0 2.8-1.3 4.3-3.8 4.3s-3.7-1.6-3.7-4.3v-5.8h1.5v5.7c0 1.9 0.8 2.9 2.3 2.9 1.6 0 2.3-1 2.3-2.8v-5.8h1.5v5.8z"/>
			<path d="m492.2 158.2h-1.5v-9.9h1.5z"/>
			<path d="m549.7 153.2c0 3.1-1.7 5.1-4.3 5.1-2.5 0-4.2-2-4.2-5.1s1.7-5.1 4.2-5.1c2.6 0 4.3 2 4.3 5.1zm-1.5 0c0-2.3-1.2-3.7-2.8-3.7s-2.7 1.4-2.7 3.6 1.1 3.7 2.7 3.7c1.7 0.1 2.8-1.3 2.8-3.6z"/>
			<path d="m603.5 151.4c0 2-1.4 3.1-3.3 3.1h-2.6v3.7h-1.5v-9.9h4.2c1.8-0.1 3.2 1 3.2 3.1zm-1.5 0c0-1.1-0.7-1.7-1.7-1.7h-2.7v3.4h2.7c1.1 0 1.7-0.7 1.7-1.7z"/>
			<path d="m655.8 151.2c-2.3 0-3.3-1-3.3-3v-0.9c0-1-0.2-1.2-0.8-1.2h-0.3v-1.3h0.3c0.6 0 0.8-0.3 0.8-1.2v-0.9c0-2 1-3 3.3-3v1.1c-1.4 0.1-1.8 0.7-1.8 1.8v0.7c0 1.3-0.3 1.9-1.1 2.2 0.8 0.3 1.1 0.9 1.1 2.2v0.7c0 1.1 0.4 1.7 1.8 1.8z"/>
			<path d="m655.3 168.2h-3.1v-11.5h3.1v1.2h-1.7v9.1h1.7z"/>
			<path d="m709.6 146.1h-0.3c-0.6 0-0.8 0.3-0.8 1.2v0.9c0 2-1 3-3.3 3v-1.1c1.4-0.1 1.8-0.7 1.8-1.8v-0.7c0-1.3 0.3-1.9 1.1-2.2-0.8-0.3-1.1-0.9-1.1-2.2v-0.7c0-1.1-0.4-1.7-1.8-1.8v-1.1c2.3 0 3.3 1 3.3 3v0.9c0 1 0.2 1.2 0.8 1.2h0.3z"/>
			<path d="m708.8 168.2h-3.1v-1.2h1.7v-9h-1.7v-1.2h3.1z"/>
			<path d="m775.7 152.3h-1.3v-14h1.3z"/>
			<path d="m777.9 168h-1.5l-4.4-12.5h1.5z"/>
			<path d="m131.4 212.2h-1.6l-0.8-2.4h-4l-0.8 2.4h-1.5l3.6-9.9h1.6zm-2.9-3.7-0.8-2.3c-0.2-0.7-0.6-1.9-0.8-2.3-0.1 0.4-0.5 1.6-0.7 2.3l-0.8 2.3z"/>
			<path d="m184.5 209.3c0 1.8-1.1 3-3.7 3-1.4 0-2.7-0.6-3.5-1.6l1.1-1c0.7 0.7 1.6 1.2 2.6 1.2 1.4 0 2.1-0.5 2.1-1.4 0-0.8-0.6-1.1-2.2-1.6-2.1-0.6-3.1-1.1-3.1-2.9 0-1.7 1.4-2.8 3.3-2.8 1.3 0 2.4 0.5 3.2 1.3l-1 1.1c-0.6-0.6-1.3-0.9-2.3-0.9-1.2 0-1.7 0.6-1.7 1.2 0 0.7 0.5 1 2.2 1.5 1.8 0.5 3 1.2 3 2.9z"/>
			<path d="m239 207.2c0 3.5-2.2 5-4.8 5h-2.7v-9.9h2.7c2.7-0.1 4.8 1.4 4.8 4.9zm-1.5 0c0-2.1-1-3.5-3.3-3.5h-1.2v7h1.2c2.3 0 3.3-1.4 3.3-3.5z"/>
			<path d="m292.6 203.7h-4.9v2.6h2.8v1.5h-2.8v4.4h-1.5v-9.9h6.4z"/>
			<path d="m347 208.3c0 2.6-1.6 4-3.8 4-2.6 0-4.2-2.1-4.2-5.1s1.6-5.1 4.2-5.1c1.6 0 2.7 0.7 3.4 1.9l-1.3 0.8c-0.5-0.8-1-1.2-2.1-1.2-1.7 0-2.7 1.4-2.7 3.6s0.9 3.6 2.7 3.6c1.6 0 2.3-1.1 2.3-2.2h-1.6v-1.4h3.1z"/>
			<path d="m400.8 212.2h-1.5v-4.4h-4.6v4.4h-1.5v-9.9h1.5v4h4.6v-4h1.5z"/>
			<path d="m454.1 208.3c0 2.7-1.1 4.1-3.5 4.1-1.9 0-3-1-3.5-2.6l1.4-0.4c0.4 1 1 1.6 2.1 1.6 1.4 0 2-0.8 2-2.7v-5.9h1.5z"/>
			<path d="m509.3 212.2h-1.7l-2.8-5.1-1.8 2.2v2.9h-1.4v-9.9h1.4v5.2c0.2-0.3 0.8-1.1 1.1-1.5l2.9-3.7h1.7l-2.9 3.6z"/>
			<path d="m562.5 212.2h-6.4v-9.9h1.5v8.5h4.9z"/>
			<path d="m614.1 197.2c0 0.6-0.5 1.1-1.1 1.1s-1.1-0.5-1.1-1.1 0.5-1.1 1.1-1.1 1.1 0.5 1.1 1.1zm0 5.5c0 0.6-0.5 1.1-1.1 1.1s-1.1-0.5-1.1-1.1 0.5-1.1 1.1-1.1 1.1 0.5 1.1 1.1z"/>
			<path d="m614.1 214.2c0 0.6-0.5 1.1-1.1 1.1s-1.1-0.5-1.1-1.1 0.5-1.1 1.1-1.1 1.1 0.5 1.1 1.1zm-0.1 4.5-1.1 3.8h-1l0.2-3.8z"/>
			<path d="m666.3 193.7-0.2 3.6h-1.9l1.1-3.6zm3.3 0-0.2 3.6h-1.9l1.1-3.6z"/>
			<path d="m668 210.8-0.2 3.6h-1.9l1.1-3.6z"/>
			<path d="m157.7 266.2h-7.5v-1.4l4.8-5.9c0.3-0.4 0.9-1 1.1-1.3h-5.7v-1.4h7.3v1.4l-4.8 5.9c-0.3 0.4-0.9 1-1.1 1.3h5.9z"/>
			<path d="m212 266.2h-1.8l-1.1-1.9c-0.4-0.6-0.9-1.6-1.1-2-0.2 0.4-0.7 1.4-1.1 2l-1.1 1.9h-1.7l3.1-5.1-2.9-4.8h1.8l0.9 1.6c0.3 0.6 0.9 1.7 1.1 2 0.2-0.4 0.7-1.4 1.1-2l0.9-1.6h1.7l-2.8 4.7z"/>
			<path d="m265.8 264.4c-0.7 1.2-1.9 1.9-3.4 1.9-2.6 0-4.2-2.1-4.2-5.1s1.6-5.1 4.2-5.1c1.6 0 2.7 0.7 3.4 1.9l-1.3 0.8c-0.5-0.8-1-1.2-2.1-1.2-1.7 0-2.7 1.4-2.7 3.6s0.9 3.6 2.7 3.6c1 0 1.7-0.4 2.2-1.2z"/>
			<path d="m320.2 256.2-3.4 9.9h-1.6l-3.4-9.9h1.6l2.7 8.1c0.1-0.4 0.4-1.2 0.6-1.8l2-6.3z"/>
			<path d="m373.8 263.1c0 2-1.2 3-3.4 3h-3.9v-9.9h4.1c1.7 0 2.8 0.9 2.8 2.6 0 1-0.5 1.6-1.3 2 0.9 0.2 1.7 1 1.7 2.3zm-1.8-4.2c0-0.7-0.4-1.3-1.4-1.3h-2.7v2.6h2.7c1 0 1.4-0.6 1.4-1.3zm0.4 4.3c0-1-0.6-1.6-1.8-1.6h-2.7v3.3h2.7c1.3-0.1 1.8-0.8 1.8-1.7z"/>
			<path d="m427.8 266.2h-1.4l-4-6.2c-0.2-0.4-0.6-1-0.7-1.2v7.4h-1.4v-9.9h1.5l3.8 6.1c0.3 0.4 0.7 1.1 0.8 1.4v-7.4h1.4z"/>
			<path d="m482.4 266.2h-1.4v-6.9c-0.1 0.3-0.4 1-0.6 1.6l-2.4 5.6-2.4-5.6c-0.2-0.6-0.5-1.3-0.6-1.6v6.9h-1.4v-9.9h1.5l2.2 5.3c0.2 0.6 0.6 1.3 0.7 1.7 0.1-0.4 0.4-1.1 0.7-1.7l2.2-5.3h1.6v9.9z"/>
			<path d="m534 257-4.1-3.6v-1.2l4.1-3.6v1.8l-2.8 2.4 2.8 2.4z"/>
			<path d="m533 272.7-1.1 3.8h-1l0.2-3.8z"/>
			<path d="m588.1 253.4-4.1 3.6v-1.8l2.8-2.4-2.8-2.4v-1.9l4.1 3.6z"/>
			<path d="m587.1 273.7c0 0.6-0.5 1.1-1.1 1.1s-1.1-0.5-1.1-1.1 0.5-1.1 1.1-1.1 1.1 0.5 1.1 1.1z"/>
			<path d="m643.3 250.2c0 1.4-0.6 2-1.8 2.7-0.9 0.5-1.1 0.9-1.1 1.9h-1.5c0-1.7 0.3-2.2 1.9-3.1 0.7-0.4 1-0.7 1-1.4 0-0.8-0.7-1.2-1.9-1.2-1 0-1.8 0.4-2.5 1.1l-0.9-1.1c0.8-0.8 2-1.5 3.5-1.5 1.9 0 3.3 0.9 3.3 2.6zm-2.6 6.6c0 0.6-0.5 1.1-1.1 1.1s-1.1-0.5-1.1-1.1 0.5-1.1 1.1-1.1 1.1 0.5 1.1 1.1z"/>
			<path d="m642.9 263.5-4.4 12.5h-1.5l4.4-12.5z"/>
			<path d="m32.5 19.3c1.5 0 2.8 0.5 3.8 1.6 1 1 1.6 2.3 1.6 3.8s-0.5 2.7-1.6 3.8c-1 1.1-2.3 1.6-3.8 1.6s-2.7-0.5-3.8-1.6-1.6-2.3-1.6-3.8h1c0 1.2 0.4 2.2 1.3 3.1s1.9 1.3 3.1 1.3 2.2-0.4 3.1-1.3 1.3-1.9 1.3-3.1-0.4-2.2-1.3-3.1-1.9-1.3-3.1-1.3zm0.4 5-0.7 0.7-3.7-3.7-1.3 1.3v-3.4h3.4l-1.3 1.3z"/>
			<path d="m28.2 44h-5.3v-8h5.1v1.2h-3.9v2h2.3v1.2h-2.3v2.5h4.1z"/>
			<path d="m35 41.7c0 1.4-0.9 2.4-2.9 2.4-1.2 0-2.2-0.5-2.8-1.3l0.9-0.8c0.5 0.6 1.3 0.9 2.1 0.9 1.1 0 1.6-0.4 1.6-1.2 0-0.6-0.5-0.9-1.8-1.3-1.7-0.5-2.5-0.9-2.5-2.3s1.2-2.2 2.6-2.2c1.1 0 1.9 0.4 2.6 1.1l-0.8 0.9c-0.5-0.5-1.1-0.8-1.8-0.8-0.9 0-1.3 0.5-1.3 1 0 0.6 0.4 0.8 1.7 1.2 1.4 0.5 2.4 1 2.4 2.4z"/>
			<path d="m42.5 42.6c-0.6 1-1.5 1.5-2.7 1.5-2.1 0-3.4-1.7-3.4-4.1s1.3-4.1 3.4-4.1c1.3 0 2.2 0.5 2.7 1.5l-1.1 0.7c-0.4-0.6-0.8-1-1.6-1-1.4 0-2.1 1.1-2.1 2.9s0.7 2.9 2.1 2.9c0.8 0 1.3-0.3 1.7-1z"/>
			<path d="m759.2 97.2-5.1-5.1 5.1-5.1h9.5v10.2zm-3.7-5.1 4.1 4.1h8.1v-8.2h-8.1zm7.2 0.7-2.3 2.3-0.7-0.7 2.3-2.3-2.3-2.3 0.7-0.7 2.3 2.3 2.3-2.3 0.7 0.7-2.3 2.3 2.3 2.3-0.7 0.7z"/>
			<path d="m735.4 109c0 1.6-1 2.4-2.7 2.4h-3.2v-7.9h3.3c1.4 0 2.3 0.7 2.3 2.1 0 0.8-0.4 1.3-1 1.6 0.6 0.1 1.3 0.7 1.3 1.8zm-1.5-3.4c0-0.6-0.3-1-1.1-1h-2.1v2.1h2.1c0.8-0.1 1.1-0.6 1.1-1.1zm0.3 3.4c0-0.8-0.5-1.3-1.4-1.3h-2.2v2.6h2.1c1.2 0 1.5-0.5 1.5-1.3z"/>
			<path d="m743.5 111.4h-1.3l-0.7-1.9h-3.2l-0.7 1.9h-1.2l2.9-7.9h1.3zm-2.3-3-1.2-3.6-1.2 3.6z"/>
			<path d="m750.5 110c-0.6 1-1.5 1.5-2.7 1.5-2.1 0-3.4-1.7-3.4-4.1s1.3-4.1 3.4-4.1c1.3 0 2.2 0.5 2.7 1.5l-1.1 0.7c-0.4-0.6-0.8-1-1.6-1-1.4 0-2.1 1.1-2.1 2.9s0.7 2.9 2.1 2.9c0.8 0 1.3-0.3 1.7-1z"/>
			<path d="m758.5 111.4h-1.3l-2.3-4.1-1.5 1.8v2.3h-1.2v-7.9h1.2v4.1c0.1-0.2 0.7-0.9 0.9-1.2l2.3-2.9h1.3l-2.3 2.9z"/>
			<path d="m764.9 109.1c0 1.4-0.9 2.4-2.9 2.4-1.2 0-2.2-0.5-2.8-1.3l0.8-0.8c0.5 0.6 1.3 0.9 2.1 0.9 1.1 0 1.6-0.4 1.6-1.2 0-0.6-0.5-0.9-1.8-1.3-1.7-0.5-2.5-0.9-2.5-2.3s1.2-2.2 2.6-2.2c1.1 0 1.9 0.4 2.6 1.1l-0.8 0.9c-0.5-0.5-1.1-0.8-1.8-0.8-0.9 0-1.3 0.5-1.3 1 0 0.6 0.4 0.8 1.7 1.2 1.5 0.5 2.5 1 2.5 2.4z"/>
			<path d="m772.5 105.9c0 1.6-1.1 2.5-2.6 2.5h-2.1v3h-1.2v-7.9h3.3c1.6 0 2.6 0.8 2.6 2.4zm-1.2 0c0-0.9-0.5-1.4-1.4-1.4h-2.1v2.7h2.1c1 0.1 1.4-0.4 1.4-1.3z"/>
			<path d="m779.8 111.4h-1.3l-0.7-1.9h-3.2l-0.7 1.9h-1.2l2.9-7.9h1.3zm-2.3-3-1.2-3.6-1.2 3.6z"/>
			<path d="m786.8 110c-0.6 1-1.5 1.5-2.7 1.5-2.1 0-3.4-1.7-3.4-4.1s1.3-4.1 3.4-4.1c1.3 0 2.2 0.5 2.7 1.5l-1.1 0.7c-0.4-0.6-0.8-1-1.6-1-1.4 0-2.1 1.1-2.1 2.9s0.7 2.9 2.1 2.9c0.8 0 1.3-0.3 1.7-1z"/>
			<path d="m793.8 111.4h-5.3v-7.9h5.1v1.2h-3.9v2h2.3v1.2h-2.3v2.5h4.1z"/>
			<path d="m44.2 141.3-1.9 2h10v0.9h-10l1.9 2-0.5 0.5-3.1-2.9v2.6h-0.9v-5.4h0.9v2.6l3.1-2.9zm8.1 5.5v5.4h-0.9v-2.6l-3.1 2.9-0.5-0.5 1.9-2h-10v-0.9h10l-1.9-2 0.5-0.5 3.1 2.9v-2.6h0.9z"/>
			<path d="m41.6 158.9h-2.3v6.8h-1.2v-6.8h-2.3v-1.2h5.8z"/>
			<path d="m48.6 165.6h-1.3l-0.7-1.9h-3.2l-0.7 1.9h-1.2l2.9-7.9h1.3zm-2.3-2.9-1.2-3.6-1.2 3.6z"/>
			<path d="m56 163.2c0 1.6-1 2.4-2.7 2.4h-3.2v-7.9h3.3c1.4 0 2.3 0.7 2.3 2.1 0 0.8-0.4 1.3-1 1.6 0.6 0.1 1.3 0.7 1.3 1.8zm-1.5-3.4c0-0.6-0.3-1-1.1-1h-2.1v2.1h2.1c0.8-0.1 1.1-0.6 1.1-1.1zm0.4 3.4c0-0.8-0.5-1.3-1.4-1.3h-2.2v2.6h2.1c1.1 0 1.5-0.5 1.5-1.3z"/>
			<path d="m47.2 200.4 5.6-5.6 5.6 5.6h-2.8v2.1h-5.6v-2.1zm5.6-4.4-3.7 3.7h1.7v2h4v-2h1.7zm-2.8 8.1h5.6v2.8h-5.6zm0.8 0.8v1.2h4v-1.2z"/>
			<path d="m28.3 218.2c-0.6 1-1.5 1.5-2.7 1.5-2.1 0-3.4-1.7-3.4-4.1s1.3-4.1 3.4-4.1c1.3 0 2.2 0.5 2.7 1.5l-1.1 0.7c-0.4-0.6-0.8-1-1.6-1-1.4 0-2.1 1.1-2.1 2.9s0.7 2.9 2.1 2.9c0.8 0 1.3-0.3 1.7-1z"/>
			<path d="m36.3 219.5h-1.3l-0.7-1.9h-3.2l-0.7 1.9h-1.2l2.9-7.9h1.3zm-2.3-2.9-1.2-3.6-1.2 3.6z"/>
			<path d="m43.7 214.1c0 1.6-1.1 2.5-2.6 2.5h-2.1v3h-1.2v-7.9h3.3c1.6-0.1 2.6 0.8 2.6 2.4zm-1.2 0c0-0.9-0.5-1.4-1.4-1.4h-2.1v2.7h2.1c1 0.1 1.4-0.5 1.4-1.3z"/>
			<path d="m50.5 217.3c0 1.4-0.9 2.4-2.9 2.4-1.2 0-2.2-0.5-2.8-1.3l0.9-0.8c0.5 0.6 1.3 0.9 2.1 0.9 1.1 0 1.6-0.4 1.6-1.2 0-0.6-0.5-0.9-1.8-1.3-1.7-0.5-2.5-0.9-2.5-2.3s1.2-2.2 2.6-2.2c1.1 0 1.9 0.4 2.6 1.1l-0.8 0.8c-0.5-0.5-1.1-0.8-1.8-0.8-0.9 0-1.3 0.5-1.3 1 0 0.6 0.4 0.8 1.7 1.2 1.4 0.6 2.4 1.1 2.4 2.5z"/>
			<path d="m60.5 219.5h-5.1v-7.9h1.2v6.8h4v1.1z"/>
			<path d="m68.1 215.6c0 2.5-1.4 4.1-3.4 4.1s-3.4-1.6-3.4-4.1 1.4-4.1 3.4-4.1c2.1 0 3.4 1.6 3.4 4.1zm-1.2 0c0-1.8-0.9-2.9-2.2-2.9s-2.1 1.1-2.1 2.9 0.9 2.9 2.2 2.9c1.2 0 2.1-1.1 2.1-2.9z"/>
			<path d="m75.5 218.2c-0.6 1-1.5 1.5-2.7 1.5-2.1 0-3.4-1.7-3.4-4.1s1.3-4.1 3.4-4.1c1.3 0 2.2 0.5 2.7 1.5l-1.1 0.7c-0.4-0.6-0.8-1-1.6-1-1.4 0-2.1 1.1-2.1 2.9s0.7 2.9 2.1 2.9c0.8 0 1.3-0.3 1.7-1z"/>
			<path d="m83.5 219.5h-1.3l-2.3-4.1-1.5 1.8v2.3h-1.2v-7.9h1.2v4.1c0.1-0.2 0.7-0.9 0.9-1.2l2.3-2.9h1.4l-2.3 2.9z"/>
			<path d="m748.9 200.5 3-3v2.5h7.1v-4.4h-3.5v-1h4.6v6.4h-8.1v2.5z"/>
			<path d="m739 214.2c0 1.3-0.7 2.1-1.7 2.3l1.6 3.2h-1.4l-1.6-3.1h-1.8v3.1h-1.2v-7.9h3.5c1.4 0 2.6 0.8 2.6 2.4zm-1.2 0.1c0-0.8-0.5-1.3-1.3-1.3h-2.3v2.6h2.3c0.7-0.1 1.3-0.5 1.3-1.3z"/>
			<path d="m746.1 219.8h-5.3v-7.9h5.1v1.2h-3.9v2h2.3v1.2h-2.3v2.5h4.1z"/>
			<path d="m753.1 213h-2.3v6.8h-1.2v-6.8h-2.3v-1.2h5.8z"/>
			<path d="m760.6 216.5c0 2.2-1.1 3.4-3 3.4-2 0-3-1.3-3-3.5v-4.6h1.2v4.6c0 1.5 0.6 2.3 1.8 2.3s1.8-0.8 1.8-2.2v-4.6h1.2z"/>
			<path d="m768.7 214.2c0 1.3-0.7 2.1-1.7 2.3l1.6 3.2h-1.4l-1.6-3.1h-1.8v3.1h-1.2v-7.9h3.5c1.4 0 2.6 0.8 2.6 2.4zm-1.2 0.1c0-0.8-0.5-1.3-1.3-1.3h-2.3v2.6h2.3c0.7-0.1 1.3-0.5 1.3-1.3z"/>
			<path d="m776.6 219.8h-1.1l-3.2-5c-0.2-0.3-0.5-0.8-0.6-1v5.9h-1.2v-7.9h1.2l3 4.8c0.2 0.3 0.5 0.9 0.7 1.1v-6h1.2z"/>
			<path d="m60.4 254.4 5.9-5.9 5.9 5.9h-2.9v5.2h-5.9v-5.2zm5.8-4.6-3.9 3.9h1.8v5.1h4.2v-5.1h1.8z"/>
			<path d="m56.6 271.5c0 1.4-0.9 2.4-2.9 2.4-1.2 0-2.2-0.5-2.8-1.3l0.9-0.8c0.5 0.6 1.3 0.9 2.1 0.9 1.1 0 1.6-0.4 1.6-1.2 0-0.6-0.5-0.9-1.8-1.3-1.7-0.5-2.5-0.9-2.5-2.3s1.2-2.2 2.6-2.2c1.1 0 1.9 0.4 2.6 1.1l-0.8 0.8c-0.5-0.5-1.1-0.8-1.8-0.8-0.9 0-1.3 0.5-1.3 1 0 0.6 0.4 0.8 1.7 1.2 1.4 0.6 2.4 1.1 2.4 2.5z"/>
			<path d="m64.4 273.8h-1.2v-3.5h-3.7v3.5h-1.2v-7.9h1.2v3.2h3.7v-3.2h1.2z"/>
			<path d="m67.7 273.8h-1.2v-7.9h1.2z"/>
			<path d="m74.9 267.1h-3.9v2.1h2.3v1.2h-2.3v3.5h-1.2v-7.9h5.1z"/>
			<path d="m81.7 267.1h-2.3v6.8h-1.2v-6.8h-2.3v-1.2h5.8z"/>
			<path d="m735.4 254.4 5.9-5.9 5.9 5.9h-2.9v5.2h-5.9v-5.2zm5.8-4.6-3.9 3.9h1.8v5.1h4.2v-5.1h1.8z"/>
			<path d="m731.6 271.5c0 1.4-0.9 2.4-2.9 2.4-1.2 0-2.2-0.5-2.8-1.3l0.8-0.8c0.5 0.6 1.3 0.9 2.1 0.9 1.1 0 1.6-0.4 1.6-1.2 0-0.6-0.5-0.9-1.8-1.3-1.7-0.5-2.5-0.9-2.5-2.3s1.2-2.2 2.6-2.2c1.1 0 1.9 0.4 2.6 1.1l-0.8 0.8c-0.5-0.5-1.1-0.8-1.8-0.8-0.9 0-1.3 0.5-1.3 1 0 0.6 0.4 0.8 1.7 1.2 1.5 0.6 2.5 1.1 2.5 2.5z"/>
			<path d="m739.4 273.8h-1.2v-3.5h-3.7v3.5h-1.2v-7.9h1.2v3.2h3.7v-3.2h1.2z"/>
			<path d="m742.7 273.8h-1.2v-7.9h1.2z"/>
			<path d="m749.9 267.1h-3.9v2.1h2.3v1.2h-2.3v3.5h-1.2v-7.9h5.1z"/>
			<path d="m756.7 267.1h-2.3v6.8h-1.2v-6.8h-2.3v-1.2h5.8z"/>
			<path d="m19.7 325c-0.6 1-1.5 1.5-2.7 1.5-2.1 0-3.4-1.7-3.4-4.1s1.3-4.1 3.4-4.1c1.3 0 2.2 0.5 2.7 1.5l-1.1 0.7c-0.4-0.6-0.8-1-1.6-1-1.4 0-2.1 1.1-2.1 2.9s0.7 2.9 2.1 2.9c0.8 0 1.3-0.3 1.7-1z"/>
			<path d="m27.5 322.5c0 2.5-1.4 4.1-3.4 4.1s-3.4-1.6-3.4-4.1 1.4-4.1 3.4-4.1 3.4 1.6 3.4 4.1zm-1.2 0c0-1.8-0.9-2.9-2.2-2.9s-2.1 1.1-2.1 2.9 0.9 2.9 2.2 2.9c1.2 0 2.1-1.1 2.1-2.9z"/>
			<path d="m35.2 326.4h-1.1l-3.2-5c-0.2-0.3-0.5-0.8-0.6-1v5.9h-1.2v-7.9h1.2l3 4.8c0.2 0.3 0.5 0.9 0.7 1.1v-6h1.2z"/>
			<path d="m42.6 319.7h-2.3v6.8h-1.2v-6.8h-2.3v-1.2h5.8z"/>
			<path d="m50.2 320.9c0 1.3-0.7 2.1-1.7 2.3l1.6 3.2h-1.4l-1.6-3.1h-1.8v3.1h-1.2v-7.9h3.5c1.4 0 2.6 0.7 2.6 2.4zm-1.2 0c0-0.8-0.5-1.3-1.3-1.3h-2.3v2.6h2.3c0.7 0 1.3-0.4 1.3-1.3z"/>
			<path d="m58.2 322.5c0 2.5-1.4 4.1-3.4 4.1s-3.4-1.6-3.4-4.1 1.4-4.1 3.4-4.1 3.4 1.6 3.4 4.1zm-1.2 0c0-1.8-0.9-2.9-2.2-2.9s-2.1 1.1-2.1 2.9 0.9 2.9 2.2 2.9c1.2 0 2.1-1.1 2.1-2.9z"/>
			<path d="m65 326.4h-5.1v-7.9h1.2v6.8h4v1.1z"/>
			<path d="m111 302.8v8.8h-8.7v-8.8zm-4.8 4v-3.2h-3.2v3.2zm0 0.8h-3.2v3.2h3.2zm0.8-0.8h3.3v-3.3h-3.3zm0 0.8v3.2h3.3v-3.2z"/>
			<path d="m105.3 318.5-1.6 7.9h-1.2l-1.2-5.1c-0.1-0.3-0.2-0.9-0.2-1.1 0 0.2-0.2 0.8-0.2 1.1l-1.3 5.1h-1.2l-1.6-7.9h1.2l1 5c0 0.2 0.1 0.8 0.2 1 0-0.3 0.2-0.8 0.2-1l1.3-5h1l1.3 5.1c0.1 0.2 0.1 0.6 0.2 0.9 0.1-0.3 0.1-0.7 0.2-0.9l1-5.1z"/>
			<path d="m108.2 326.4h-1.2v-7.9h1.2z"/>
			<path d="m116.3 326.4h-1.1l-3.2-5c-0.2-0.3-0.5-0.8-0.6-1v5.9h-1.2v-7.9h1.2l3 4.8c0.2 0.3 0.5 0.9 0.7 1.1v-6h1.2z"/>
			<path d="m180.1 302v1h-3.1l-4.6 9.2h-4v-1h3.2l4.6-9.2zm-4.7 10.3v-1h4.8v1z"/>
			<path d="m171.6 326.4h-1.3l-0.7-1.9h-3.2l-0.7 1.9h-1.2l2.9-7.9h1.3zm-2.3-2.9-1.2-3.6-1.2 3.6z"/>
			<path d="m178.4 326.4h-5.1v-7.9h1.2v6.8h4v1.1z"/>
			<path d="m183.9 319.7h-2.3v6.8h-1.2v-6.8h-2.4v-1.2h5.8v1.2z"/>
			<path d="m374.8 309.2v-2h0.7v1.4h2.6v-1.4h0.7v2z"/>
			<path d="m365.1 324.2c0 1.4-0.9 2.4-2.9 2.4-1.2 0-2.2-0.5-2.8-1.3l0.9-0.8c0.5 0.6 1.3 0.9 2.1 0.9 1.1 0 1.6-0.4 1.6-1.2 0-0.6-0.5-0.9-1.8-1.3-1.7-0.5-2.5-0.9-2.5-2.3s1.2-2.2 2.6-2.2c1.1 0 1.9 0.4 2.6 1.1l-0.8 0.8c-0.5-0.5-1.1-0.8-1.8-0.8-0.9 0-1.3 0.5-1.3 1 0 0.6 0.4 0.8 1.7 1.2 1.5 0.5 2.4 1 2.4 2.5z"/>
			<path d="m372.8 321c0 1.6-1.1 2.5-2.6 2.5h-2.1v3h-1.2v-7.9h3.3c1.5-0.1 2.6 0.7 2.6 2.4zm-1.2 0c0-0.9-0.5-1.4-1.4-1.4h-2.1v2.7h2.1c0.9 0.1 1.4-0.5 1.4-1.3z"/>
			<path d="m380 326.4h-1.3l-0.7-1.9h-3.2l-0.7 1.9h-1.1l2.9-7.9h1.3zm-2.3-2.9-1.2-3.6-1.2 3.6z"/>
			<path d="m387.1 325c-0.6 1-1.5 1.5-2.7 1.5-2.1 0-3.4-1.7-3.4-4.1s1.3-4.1 3.4-4.1c1.3 0 2.2 0.5 2.7 1.5l-1.1 0.7c-0.4-0.6-0.8-1-1.6-1-1.4 0-2.1 1.1-2.1 2.9s0.7 2.9 2.1 2.9c0.8 0 1.3-0.3 1.7-1z"/>
			<path d="m394.1 326.4h-5.3v-7.9h5.1v1.2h-3.9v2h2.3v1.2h-2.3v2.5h4.1z"/>
			<path d="m573.4 311.2h3.2l4.6-9.2h4v1h-3.2l-4.6 9.2h-4zm7 0h4.8v1h-4.8z"/>
			<path d="m576.7 326.4h-1.3l-0.7-1.9h-3.2l-0.7 1.9h-1.2l2.9-7.9h1.3zm-2.3-2.9-1.2-3.6-1.2 3.6z"/>
			<path d="m583.4 326.4h-5.1v-7.9h1.2v6.8h4v1.1z"/>
			<path d="m588.9 319.7h-2.3v6.8h-1.2v-6.8h-2.4v-1.2h5.8v1.2z"/>
			<path d="m651.1 302.8v8.8h-8.7v-8.8zm-4.8 4v-3.2h-3.2v3.2zm0 0.8h-3.2v3.2h3.2zm0.8-0.8h3.3v-3.3h-3.3zm0 0.8v3.2h3.3v-3.2z"/>
			<path d="m645.3 318.5-1.6 7.9h-1.2l-1.2-5.1c-0.1-0.3-0.2-0.9-0.2-1.1 0 0.2-0.2 0.8-0.2 1.1l-1.3 5.1h-1.2l-1.6-7.9h1.2l1 5c0 0.2 0.1 0.8 0.2 1 0-0.3 0.2-0.8 0.2-1l1.3-5h1l1.3 5.1c0.1 0.2 0.1 0.6 0.2 0.9 0.1-0.3 0.1-0.7 0.2-0.9l1-5.1z"/>
			<path d="m648.2 326.4h-1.2v-7.9h1.2z"/>
			<path d="m656.3 326.4h-1.1l-3.2-5c-0.2-0.3-0.5-0.8-0.6-1v5.9h-1.2v-7.9h1.2l3 4.8c0.2 0.3 0.5 0.9 0.7 1.1v-6h1.2z"/>
			<path d="m710.6 303.4h7.3v1.2h-7.3zm0 2.5h7.3v1.2h-7.3zm0 2.5h7.3v1.2h-7.3zm0 2.5h7.3v1.2h-7.3z"/>
			<path d="m706.3 326.3h-1.2v-5.6c-0.1 0.2-0.3 0.8-0.5 1.2l-1.9 4.5-1.9-4.5c-0.2-0.5-0.4-1-0.5-1.2v5.6h-1.1v-7.9h1.2l1.8 4.2c0.2 0.5 0.4 1 0.5 1.4 0.1-0.3 0.3-0.9 0.5-1.4l1.7-4.2h1.3v7.9z"/>
			<path d="m713.6 326.3h-5.3v-7.9h5.1v1.2h-3.9v2h2.3v1.2h-2.3v2.5h4.1z"/>
			<path d="m721.3 326.3h-1.1l-3.2-5c-0.2-0.3-0.5-0.8-0.6-1v5.9h-1.2v-7.9h1.2l3 4.8c0.2 0.3 0.5 0.9 0.7 1.1v-6h1.2z"/>
			<path d="m729.4 323c0 2.2-1.1 3.4-3 3.4-2 0-3-1.3-3-3.5v-4.6h1.2v4.6c0 1.5 0.6 2.3 1.8 2.3s1.8-0.8 1.8-2.2v-4.6h1.2z"/>
			<path d="m781.2 313.6v-1.4c-1.5-0.2-2.7-0.9-3.6-2.1l-1.2 0.7-0.5-0.9 1.2-0.7c-0.3-0.7-0.4-1.4-0.4-2.1s0.1-1.4 0.4-2.1l-1.2-0.7 0.5-0.9 1.2 0.7c0.9-1.2 2.1-1.9 3.6-2.1v-1.4h1v1.4c1.5 0.2 2.7 0.9 3.6 2.1l1.2-0.7 0.5 0.9-1.2 0.7c0.3 0.7 0.5 1.4 0.5 2.1s-0.2 1.4-0.5 2.1l1.2 0.7-0.5 0.9-1.2-0.7c-0.9 1.2-2.1 1.9-3.6 2.1v1.4zm-3.2-8c-0.2 0.5-0.3 1-0.3 1.6 0 0.5 0.1 1.1 0.3 1.6l2.8-1.6zm3.2-2.5c-1.1 0.1-2 0.7-2.7 1.6l2.8 1.6v-3.2zm-2.7 6.5c0.7 0.9 1.6 1.4 2.7 1.6v-3.2zm6.5-4.9c-0.7-0.9-1.6-1.4-2.7-1.6v3.2zm-2.7 6.5c1.1-0.1 2-0.7 2.7-1.6l-2.8-1.6v3.2zm3.2-2.5c0.2-0.5 0.3-1 0.3-1.6 0-0.5-0.1-1.1-0.3-1.6l-2.8 1.6z"/>
			<path d="m38.7 313.6v-1.4c-1.5-0.2-2.7-0.9-3.6-2.1l-1.2 0.7-0.5-0.9 1.2-0.7c-0.3-0.7-0.4-1.4-0.4-2.1s0.1-1.4 0.4-2.1l-1.2-0.7 0.5-0.9 1.2 0.7c0.9-1.2 2.1-1.9 3.6-2.1v-1.4h1v1.4c1.5 0.2 2.7 0.9 3.6 2.1l1.2-0.7 0.5 0.9-1.2 0.7c0.3 0.7 0.5 1.4 0.5 2.1s-0.2 1.4-0.5 2.1l1.2 0.7-0.5 0.9-1.2-0.7c-0.9 1.2-2.1 1.9-3.6 2.1v1.4zm-3.2-8c-0.2 0.5-0.3 1-0.3 1.6 0 0.5 0.1 1.1 0.3 1.6l2.8-1.6zm3.2-2.5c-1.1 0.1-2 0.7-2.7 1.6l2.8 1.6v-3.2zm-2.7 6.5c0.7 0.9 1.6 1.4 2.7 1.6v-3.2zm6.5-4.9c-0.7-0.9-1.6-1.4-2.7-1.6v3.2zm-2.7 6.5c1.1-0.1 2-0.7 2.7-1.6l-2.8-1.6v3.2zm3.2-2.5c0.2-0.5 0.3-1 0.3-1.6 0-0.5-0.1-1.1-0.3-1.6l-2.8 1.6z"/>
			<path d="m762.2 325c-0.6 1-1.5 1.5-2.7 1.5-2.1 0-3.4-1.7-3.4-4.1s1.3-4.1 3.4-4.1c1.3 0 2.2 0.5 2.7 1.5l-1.1 0.7c-0.4-0.6-0.8-1-1.6-1-1.4 0-2.1 1.1-2.1 2.9s0.7 2.9 2.1 2.9c0.8 0 1.3-0.3 1.7-1z"/>
			<path d="m770 322.5c0 2.5-1.4 4.1-3.4 4.1s-3.4-1.6-3.4-4.1 1.4-4.1 3.4-4.1 3.4 1.6 3.4 4.1zm-1.2 0c0-1.8-0.9-2.9-2.2-2.9s-2.1 1.1-2.1 2.9 0.9 2.9 2.2 2.9c1.2 0 2.1-1.1 2.1-2.9z"/>
			<path d="m777.7 326.4h-1.1l-3.2-5c-0.2-0.3-0.5-0.8-0.6-1v5.9h-1.2v-7.9h1.2l3 4.8c0.2 0.3 0.5 0.9 0.7 1.1v-6h1.2z"/>
			<path d="m785.1 319.7h-2.3v6.8h-1.2v-6.8h-2.3v-1.2h5.8z"/>
			<path d="m792.7 320.9c0 1.3-0.7 2.1-1.7 2.3l1.6 3.2h-1.4l-1.6-3.1h-1.8v3.1h-1.2v-7.9h3.5c1.4 0 2.6 0.7 2.6 2.4zm-1.2 0c0-0.8-0.5-1.3-1.3-1.3h-2.3v2.6h2.3c0.7 0 1.3-0.4 1.3-1.3z"/>
			<path d="m800.7 322.5c0 2.5-1.4 4.1-3.4 4.1s-3.4-1.6-3.4-4.1 1.4-4.1 3.4-4.1 3.4 1.6 3.4 4.1zm-1.2 0c0-1.8-0.9-2.9-2.2-2.9s-2.1 1.1-2.1 2.9 0.9 2.9 2.2 2.9c1.2 0 2.1-1.1 2.1-2.9z"/>
			<path d="m807.5 326.4h-5.1v-7.9h1.2v6.8h4v1.1z"/>
		</g>
	</g>
</svg>
