<svg width="150" version="1.1" viewBox="0 0 48.683 61.202" xmlns="http://www.w3.org/2000/svg">
	<g transform="matrix(.8762 0 0 .8762 .0047005 -199.03)">
		<g transform="matrix(.26458 0 0 .26458 -266.57 206.99)">
			<g class = "caps">
				<path class="key [[NumLock]]" d="m1012.5 77.2h38c2.2 0 4 1.8 4 4v38c0 2.2-1.8 4-4 4h-38c-2.2 0-4-1.8-4-4v-38c0-2.2 1.8-4 4-4z"/>

				<path class="key [[NumpadDivide]]" d="m1066.5 77.2h38c2.2 0 4 1.8 4 4v38c0 2.2-1.8 4-4 4h-38c-2.2 0-4-1.8-4-4v-38c0-2.2 1.8-4 4-4z"/>

				<path class="key [[NumpadMultiply]]" d="m1120.5 77.2h38c2.2 0 4 1.8 4 4v38c0 2.2-1.8 4-4 4h-38c-2.2 0-4-1.8-4-4v-38c0-2.2 1.8-4 4-4z"/>

				<path class="key [[NumpadSubtract]]" d="m1174.5 77.2h38c2.2 0 4 1.8 4 4v38c0 2.2-1.8 4-4 4h-38c-2.2 0-4-1.8-4-4v-38c0-2.2 1.8-4 4-4z"/>

				<path class="key [[Numpad7]]" d="m1012.5 131.2h38c2.2 0 4 1.8 4 4v38c0 2.2-1.8 4-4 4h-38c-2.2 0-4-1.8-4-4v-38c0-2.2 1.8-4 4-4z"/>

				<path class="key [[Numpad8]]" d="m1066.5 131.2h38c2.2 0 4 1.8 4 4v38c0 2.2-1.8 4-4 4h-38c-2.2 0-4-1.8-4-4v-38c0-2.2 1.8-4 4-4z"/>

				<path class="key [[Numpad9]]" d="m1120.5 131.2h38c2.2 0 4 1.8 4 4v38c0 2.2-1.8 4-4 4h-38c-2.2 0-4-1.8-4-4v-38c0-2.2 1.8-4 4-4z"/>

				<path class="key [[NumpadAdd]]" d="m1174.5 131.2h38c2.2 0 4 1.8 4 4v92c0 2.2-1.8 4-4 4h-38c-2.2 0-4-1.8-4-4v-92c0-2.2 1.8-4 4-4z"/>

				<path class="key [[Numpad4]]" d="m1012.5 185.2h38c2.2 0 4 1.8 4 4v38c0 2.2-1.8 4-4 4h-38c-2.2 0-4-1.8-4-4v-38c0-2.2 1.8-4 4-4z"/>

				<path class="key [[Numpad5]]" d="m1066.5 185.2h38c2.2 0 4 1.8 4 4v38c0 2.2-1.8 4-4 4h-38c-2.2 0-4-1.8-4-4v-38c0-2.2 1.8-4 4-4z"/>

				<path class="key [[Numpad6]]" d="m1120.5 185.2h38c2.2 0 4 1.8 4 4v38c0 2.2-1.8 4-4 4h-38c-2.2 0-4-1.8-4-4v-38c0-2.2 1.8-4 4-4z"/>

				<path class="key [[Numpad1]]" d="m1012.5 239.2h38c2.2 0 4 1.8 4 4v38c0 2.2-1.8 4-4 4h-38c-2.2 0-4-1.8-4-4v-38c0-2.2 1.8-4 4-4z"/>

				<path class="key [[Numpad2]]" d="m1066.5 239.2h38c2.2 0 4 1.8 4 4v38c0 2.2-1.8 4-4 4h-38c-2.2 0-4-1.8-4-4v-38c0-2.2 1.8-4 4-4z"/>

				<path class="key [[Numpad3]]" d="m1120.5 239.2h38c2.2 0 4 1.8 4 4v38c0 2.2-1.8 4-4 4h-38c-2.2 0-4-1.8-4-4v-38c0-2.2 1.8-4 4-4z"/>

				<path class="key [[NumpadEnter]]" d="m1174.5 239.2h38c2.2 0 4 1.8 4 4v92c0 2.2-1.8 4-4 4h-38c-2.2 0-4-1.8-4-4v-92c0-2.2 1.8-4 4-4z"/>

				<path class="key [[Numpad0]]" d="m1012.5 293.2h92c2.2 0 4 1.8 4 4v38c0 2.2-1.8 4-4 4h-92c-2.2 0-4-1.8-4-4v-38c0-2.2 1.8-4 4-4z"/>

				<path class="key [[NumpadDecimal]]" d="m1120.5 293.2h38c2.2 0 4 1.8 4 4v38c0 2.2-1.8 4-4 4h-38c-2.2 0-4-1.8-4-4v-38c0-2.2 1.8-4 4-4z"/>
			</g>
			<g class = "glyphs">
				<path d="m1088.4 93-4.4 12.5h-1.5l4.5-12.5z"/>
				<path d="m1136.4 98.2 0.7-1.2 1.9 1.4-0.2-2.4h1.4l-0.2 2.4 1.9-1.4 0.7 1.2-2.2 1 2.2 1-0.7 1.2-1.9-1.4 0.2 2.4h-1.4l0.2-2.4-1.9 1.4-0.7-1.2 2.2-1z"/>
				<path d="m1189.9 98.4h7.2v1.6h-7.2z"/>
				<path d="m1034.6 149.8c-1.7 1.9-3.2 4.7-3.3 8.4h-1.5c0.1-3.4 1.2-6.1 3.1-8.5h-5.2v-1.4h6.9z"/>
				<path d="m1089.4 155.3c0 2-1.5 3-3.9 3s-3.9-1.1-3.9-3c0-1.2 0.6-2 1.8-2.5-1-0.4-1.3-1.3-1.3-1.9 0-1.9 1.5-2.8 3.5-2.8 1.8 0 3.5 0.9 3.5 2.8 0 0.6-0.3 1.5-1.3 1.9 0.9 0.4 1.6 1.2 1.6 2.5zm-1.5 0c0-1-0.8-1.7-2.4-1.7s-2.4 0.6-2.4 1.6 0.9 1.7 2.4 1.7c1.6 0.1 2.4-0.6 2.4-1.6zm-0.4-4.4c0-0.8-0.5-1.5-2-1.5-1.4 0-2 0.7-2 1.4 0 0.8 0.8 1.4 2 1.4 1.3 0 2-0.6 2-1.3z"/>
				<path d="m1143.2 152c0 2.6-1.4 6.1-6.2 6.3v-1.4c2.3-0.1 3.8-1.1 4.5-3.2-0.7 0.6-1.4 0.8-2.6 0.8-1.8 0-3.3-1-3.3-3.1 0-2.2 1.7-3.3 3.9-3.3 2.1 0 3.7 1.1 3.7 3.9zm-1.5-0.6c0-1-0.8-1.8-2.3-1.8s-2.3 0.7-2.3 1.8c0 1.2 0.8 1.7 2.3 1.7 1.4 0 2.3-0.6 2.3-1.7z"/>
				<path d="m1197.3 182h-3v3h-1.6v-3h-3v-1.6h3v-3h1.6v3h3z"/>
				<path d="m1035.5 209.9h-1.3v2.2h-1.4v-2.1h-5.4v-1.4l5.1-6.3h1.7v6.4h1.3zm-2.7-6c-0.2 0.3-0.6 0.8-0.9 1.2l-1.9 2.4c-0.3 0.4-0.7 0.9-0.9 1.1h3.7v-2.9c-0.1-0.5 0-1.4 0-1.8z"/>
				<path d="m1089.1 208.8c0 2.4-1.6 3.5-3.9 3.5-1.3 0-2.4-0.3-3.5-1l0.7-1.2c0.8 0.5 1.9 0.8 2.8 0.8 1.5 0 2.4-0.8 2.4-2s-0.8-1.8-2-1.8c-0.8 0-1.4 0.2-1.9 0.6l-1.6-0.6 0.3-4.8h6.1v1.4h-4.8l-0.2 2.5c0.6-0.3 1.2-0.5 2.1-0.5 2.4 0 3.5 1.3 3.5 3.1z"/>
				<path d="m1143.4 209c0 2.2-1.7 3.3-3.9 3.3-2.1 0-3.7-1.1-3.7-4 0-2.6 1.4-6.1 6.2-6.3v1.4c-2.3 0.1-3.8 1.1-4.5 3.2 0.7-0.6 1.4-0.8 2.6-0.8 1.8 0.1 3.3 1.1 3.3 3.2zm-1.5 0.1c0-1.2-0.8-1.7-2.3-1.7-1.4 0-2.3 0.6-2.3 1.7 0 1 0.8 1.8 2.3 1.8s2.3-0.7 2.3-1.8z"/>
				<path d="m1032.6 266.2h-1.5v-7.6h-1.8v-1c1-0.1 1.9-0.4 2-1.3h1.2v9.9z"/>
				<path d="m1088.8 266.2h-7.1c0.1-2.9 1.9-4.2 3.8-5.4 1.3-0.8 1.7-1.2 1.7-1.9 0-0.8-0.5-1.3-1.9-1.3-0.8 0-1.8 0.4-2.4 1l-1-1.1c0.9-0.8 2.2-1.3 3.4-1.3 2.1 0 3.4 0.9 3.4 2.7 0 1.5-0.8 2.2-2.5 3.2-1.9 1.1-2.4 1.8-2.7 2.7h5.3z"/>
				<path d="m1142.8 263.2c0 2-1.4 3.1-3.7 3.1-1.4 0-2.9-0.6-3.6-1.6l1.1-1c0.6 0.8 1.5 1.1 2.4 1.1 1.6 0 2.2-0.6 2.2-1.6s-0.8-1.5-1.8-1.5h-0.9v-1.4h0.9c0.9 0 1.4-0.6 1.4-1.4 0-0.6-0.4-1.4-1.9-1.4-0.8 0-1.4 0.3-2 0.9l-1.1-1c0.8-0.9 1.8-1.3 3.1-1.3 1.9 0 3.4 1 3.4 2.7 0 1.2-0.5 1.8-1.2 2.2 1.1 0.2 1.7 1 1.7 2.2z"/>
				<path d="m1062.4 315.2c0 3-1.4 5.1-3.9 5.1s-3.9-2.1-3.9-5.1 1.4-5.1 3.9-5.1c2.6 0 3.9 2.1 3.9 5.1zm-1.5 0c0-2.1-0.7-3.7-2.4-3.7s-2.4 1.6-2.4 3.7 0.7 3.7 2.4 3.7c1.8 0 2.4-1.6 2.4-3.7z"/>
				<path d="m1140.6 319.2c0 0.6-0.5 1.1-1.1 1.1s-1.1-0.5-1.1-1.1 0.5-1.1 1.1-1.1 1.1 0.5 1.1 1.1z"/>
				<path d="m1030.1 91v-3.4h-1.2l2.6-2.6 2.6 2.6h-1.2v3.4h1.2v2h-5.2v-2zm1.2-5-1.1 1.1h0.4v4.4h-1.2v1h1.9zm0.4 0v6.5h1.9v-1h-1.2v-4.4h0.4z"/>
				<path d="m1027.3 103.2h-0.8l-2.4-3.7c-0.1-0.2-0.3-0.6-0.4-0.7v4.5h-0.9v-5.9h0.9l2.3 3.6c0.2 0.2 0.4 0.7 0.5 0.8v-4.5h0.9v5.9z"/>
				<path d="m1033.4 100.7c0 1.7-0.8 2.6-2.3 2.6s-2.2-1-2.2-2.6v-3.5h0.9v3.4c0 1.1 0.5 1.7 1.4 1.7s1.4-0.6 1.4-1.7v-3.5h0.9v3.6z"/>
				<path d="m1040.2 103.2h-0.9v-4.2c-0.1 0.2-0.2 0.6-0.4 0.9l-1.4 3.3-1.4-3.3c-0.1-0.3-0.3-0.8-0.4-0.9v4.1h-0.8v-5.9h0.9l1.3 3.2c0.1 0.3 0.3 0.8 0.4 1 0.1-0.2 0.3-0.7 0.4-1l1.3-3.2h1z"/>
				<path d="m1025 113.4h-3.9v-5.9h0.9v5.1h3z"/>
				<path d="m1030.7 110.4c0 1.9-1 3.1-2.5 3.1s-2.5-1.2-2.5-3.1 1-3.1 2.5-3.1 2.5 1.2 2.5 3.1zm-0.9 0c0-1.4-0.7-2.2-1.6-2.2s-1.6 0.8-1.6 2.2 0.7 2.2 1.6 2.2c1 0 1.6-0.9 1.6-2.2z"/>
				<path d="m1036.3 112.3c-0.4 0.7-1.1 1.1-2 1.1-1.5 0-2.5-1.3-2.5-3.1s1-3.1 2.5-3.1c1 0 1.6 0.4 2 1.1l-0.8 0.5c-0.3-0.5-0.6-0.7-1.2-0.7-1 0-1.6 0.8-1.6 2.2s0.6 2.2 1.6 2.2c0.6 0 1-0.3 1.3-0.7z"/>
				<path d="m1042.3 113.4h-1l-1.7-3.1-1.1 1.3v1.7h-0.9v-5.9h0.9v3.1c0.1-0.2 0.5-0.6 0.7-0.9l1.8-2.2h1l-1.7 2.2z"/>
				<path d="m1188.1 291.5 5.4-5.4 5.4 5.4-1 1-4.5-4.5-4.4 4.5zm3.1-5.4v1.4h-3.2v-1.4zm7.7 0v1.4h-3.2v-1.4z"/>
				<path d="m1181.4 326.4h-5.3v-7.9h5.1v1.2h-3.9v2h2.3v1.2h-2.3v2.5h4.1z"/>
				<path d="m1189.1 326.4h-1.1l-3.2-5c-0.2-0.3-0.5-0.8-0.6-1v5.9h-1.2v-7.9h1.2l3 4.8c0.2 0.3 0.5 0.9 0.7 1.1v-6h1.2z"/>
				<path d="m1196.5 319.7h-2.3v6.8h-1.2v-6.8h-2.3v-1.2h5.8z"/>
				<path d="m1203.4 326.4h-5.3v-7.9h5.1v1.2h-3.9v2h2.3v1.2h-2.3v2.5h4.1z"/>
				<path d="m1211.1 320.9c0 1.3-0.7 2.1-1.7 2.3l1.6 3.2h-1.4l-1.6-3.1h-1.8v3.1h-1.2v-7.9h3.5c1.4 0 2.6 0.7 2.6 2.4zm-1.2 0c0-0.8-0.5-1.3-1.3-1.3h-2.3v2.6h2.3c0.7 0 1.3-0.4 1.3-1.3z"/>
			</g>
		</g>
	</g>
</svg>
